<?xml version="1.0" encoding="UTF-8"?>
<svg width="526px" height="526px" viewBox="0 0 526 526" version="1.1" xmlns="http://www.w3.org/2000/svg" xmlns:xlink="http://www.w3.org/1999/xlink">
    <!-- Generator: Sketch 58 (84663) - https://sketch.com -->
    <title>3</title>
    <desc>Created with Sketch.</desc>
    <defs>
        <linearGradient x1="93.765777%" y1="50%" x2="0%" y2="50%" id="linearGradient-1">
            <stop stop-color="#E56A41" offset="0.0791807432%"></stop>
            <stop stop-color="#E37D4A" offset="100%"></stop>
        </linearGradient>
        <linearGradient x1="83.8051983%" y1="50%" x2="0%" y2="50%" id="linearGradient-2">
            <stop stop-color="#C82021" offset="0%"></stop>
            <stop stop-color="#F41428" offset="100%"></stop>
        </linearGradient>
        <linearGradient x1="83.8051983%" y1="50%" x2="0%" y2="50%" id="linearGradient-3">
            <stop stop-color="#C82021" offset="0%"></stop>
            <stop stop-color="#F41428" offset="100%"></stop>
        </linearGradient>
        <linearGradient x1="83.8051983%" y1="50%" x2="0%" y2="50%" id="linearGradient-4">
            <stop stop-color="#C82021" offset="0%"></stop>
            <stop stop-color="#F41428" offset="100%"></stop>
        </linearGradient>
    </defs>
    <g id="3" stroke="none" stroke-width="1" fill="none" fill-rule="evenodd">
        <rect fill="#FFFFFF" x="0" y="0" width="526" height="526"></rect>
        <g id="编组" transform="translate(59.000000, 90.000000)">
            <g id="编组-17" transform="translate(44.237794, 0.000000)">
                <g id="编组-16" transform="translate(0.000000, 74.377726)">
                    <path d="M323.585761,11.1540007 C335.071913,2.21626047 343.889831,-1.3500976 350.039516,0.45492647 C352.414317,1.92197663 352.302994,4.47353153 350.039516,4.47353153 C347.776039,4.47353153 356.352215,7.69086976 353.195866,11.1540007 C350.039516,14.6171316 349.691629,17.7327904 347.360837,17.7327904 C345.030045,17.7327904 342.802499,21.2652871 341.345407,21.2652871 C339.888315,21.2652871 334.566183,28.9558098 332.059985,29.9191685 C329.553787,30.8825272 316.654222,17.1617333 318.38608,14.9595842 C319.540652,13.4914849 321.273879,12.222957 323.585761,11.1540007 Z" id="路径-277" fill="#FFD8B1"></path>
                    <g id="编组-77" transform="translate(0.000000, 153.157008)">
                        <rect id="矩形" fill="#523D2F" transform="translate(32.821589, 15.697282) rotate(-21.000000) translate(-32.821589, -15.697282) " x="7.135128" y="14.270256" width="51.3729216" height="2.8540512" rx="1.4270256"></rect>
                        <path d="M4.651998,25.8384378 C5.32907052e-15,22.8048999 -1.1629995,18.0740483 1.1629995,11.645883 C3.47998781,7.25853661 2.325999,0.883115697 1.1629995,0.0741625084 C6.21724894e-15,-0.73479068 9.83041676,5.21134669 11.8477759,11.2163461 C14.1490935,17.2404612 15.8143755,22.3287501 11.93987,25.2478185 C9.35686637,27.1938641 6.9275757,27.3907372 4.651998,25.8384378 Z" id="路径-276" fill="#EF9D64"></path>
                        <path d="M6.60956387,22.2837318 C4.2810768,20.6727626 3.69895503,18.1604299 4.86319857,14.7467339 C6.02293193,12.4168208 5.44532033,9.03113478 4.86319857,8.60153782 C4.2810768,8.17194085 9.20154286,11.3296545 10.2113014,14.5186271 C11.363191,17.7177511 12.1967227,20.4199018 10.2573977,21.9700817 C8.9645144,23.0035349 7.74856978,23.1080849 6.60956387,22.2837318 Z" id="路径-276" fill="#F4C368"></path>
                    </g>
                    <path d="M49.2578736,145.301912 C41.1544016,149.538163 37.1026656,153.964097 37.1026656,158.579714 C37.1026656,165.50314 43.1478959,169.865846 46.2028848,169.865846 C49.2578736,169.865846 50.9203348,168.089393 47.661072,163.334554 C44.4018092,158.579714 53.3324329,166.52767 57.1232178,163.334554 C59.6504077,161.20581 61.548604,157.964416 62.8178067,153.610371 L57.1232178,141.740803 L49.2578736,145.301912 Z" id="路径-275" fill="#FFD8B1"></path>
                    <path d="M161.121487,191.07681 C152.507937,198.205556 147.362269,204.292408 145.684483,209.337367 C143.167804,216.904805 178.535769,212.24792 186.925755,209.337367 C195.315741,206.426814 208.311993,199.637372 208.311993,197.218105 C208.311993,195.60526 207.475209,191.858758 205.801641,185.978597 L161.121487,191.07681 Z" id="路径-274" fill="#201D1D"></path>
                    <path d="M313.813226,181.087631 C305.199676,188.216377 300.054008,194.303229 298.376222,199.348188 C295.859543,206.915626 331.227508,202.258741 339.617494,199.348188 C348.00748,196.437635 361.003732,189.648193 361.003732,187.228926 C361.003732,185.616081 360.166948,181.869578 358.49338,175.989418 L313.813226,181.087631 Z" id="路径-274备份" fill="#201D1D" transform="translate(329.626041, 189.722520) scale(-1, 1) rotate(23.000000) translate(-329.626041, -189.722520) "></path>
                    <path d="M108.552763,67.6713751 C99.8473215,74.9322937 91.6446051,83.8218352 83.9446138,94.3399997 C72.3946268,110.117246 45.4356783,124.668567 44.2377936,135.581663 C43.0399089,146.494758 43.0399089,153.547927 59.9843999,165.190468 C76.9288908,176.833009 117.341911,130.927362 124.44432,130.927362 C131.54673,130.927362 161.961154,138.593473 166.294827,135.581663 C169.183943,133.573789 175.969583,128.810298 186.651749,121.291189 C204.557475,132.505032 217.883753,138.858926 226.630581,140.35287 C239.750824,142.593787 275.038316,138.672183 291.650731,124.2104 C295.1165,116.046387 287.255285,117.947786 285.668687,114.048029 C284.082089,110.148272 278.242554,87.0971525 276.61393,85.3671293 C274.985306,83.6371062 276.61393,80.3787024 282.047041,80.1096235 C291.650731,73.218624 315.969071,69.7385019 332.205577,50.8040988 C333.921929,45.1706288 340.158483,38.1608801 342.875642,35.8369476 C345.592801,33.513015 342.575631,20.59625 333.260342,11.9661438 C323.945052,3.33603751 321.374018,1.7646771 314.900471,5.68426782 C312.638349,7.43345636 311.100578,4.16285632 309.763751,4.92356207 C308.426923,5.68426782 250.168223,37.2977434 228.369566,35.8369476 C213.837128,34.8630837 205.572893,34.1611341 203.576862,33.7310989 L162.55226,51.8782447 L108.552763,67.6713751 Z" id="路径-272" fill="#E83F16"></path>
                    <path d="M168.913785,118.253471 C144.219428,115.845072 131.022845,120.682917 129.324037,132.767006 C126.775825,150.893139 148.679124,175.608946 151.99003,180.535931 C155.300936,185.462916 158.694089,193.495187 171.439851,193.495187 C184.185613,193.495187 194.876059,195.282761 200.426901,190.507147 C205.977743,185.731533 209.344647,185.262546 209.344647,180.535931 C209.344647,175.809316 196.657508,157.930075 203.001078,160.749244 C209.344647,163.568414 214.466751,168.548772 220.563578,164.649008 C226.660404,160.749244 246.970355,163.689139 251.975213,167.602027 C256.98007,171.514916 269.486089,178.837583 274.307202,178.837583 C279.128315,178.837583 299.358614,192.476694 301.176812,193.932653 C302.99501,195.388611 325.971227,194.444562 332.907892,187.615333 C339.844557,180.786103 345.479315,174.460539 340.361472,163.80371 C335.243629,153.146881 309.698292,127.198826 293.965095,124.370545 C278.231897,121.542263 279.097372,141.502513 238.494848,139.387948 C206.43799,124.013224 183.244303,116.968399 168.913785,118.253471 Z" id="路径-273" fill="#333953"></path>
                </g>
                <g id="编组-15" transform="translate(159.028465, 129.911465) rotate(-169.000000) translate(-159.028465, -129.911465) translate(100.028465, 97.411465)">
                    <path d="M35.7553613,30.693364 C53.6813108,24.7596006 65.188219,23.5466093 70.2760861,27.0543902 C77.9078867,32.3160616 109.962148,31.1468538 112.142663,27.0543902 C114.323177,22.9619267 122.567665,17.2621791 112.142663,11.4173612 C101.71766,5.57254321 67.284647,-1.25152477 61.8533831,2.16050922 C56.4221191,5.57254321 35.7553613,0.33560956 35.7553613,6.9930386 C35.7553613,11.4313246 35.7553613,19.3314331 35.7553613,30.693364 Z" id="路径-279" fill="#FFFFFF"></path>
                    <path d="M18.646736,21.0457052 C12.3872284,26.3240265 8.08512289,31.6994449 5.74041956,37.1719603 C2.22336455,45.3807334 -3.01552627,50.3787261 5.74041956,53.100889 C14.4963654,55.823052 13.3895278,68.1531253 18.646736,63.5159578 C23.9039442,58.8787903 30.9075991,42.0196091 36.2719063,32.2622946 C41.6362136,22.50498 39.2171009,16.9807839 36.2719063,16.9807839 C34.3084433,16.9807839 28.4333865,18.3357577 18.646736,21.0457052 Z" id="路径-280" fill="#FFFFFF"></path>
                    <path d="M13.0096585,20.328433 C13.0096585,26.6013186 32.0458825,31.9353233 32.0458825,36.8239951 C32.0458825,41.7126669 42.7244305,36.8239951 46.6813272,28.576214 C50.6382238,20.328433 59.1356577,14.5126422 54.8869408,8.4237254 C50.6382238,2.33480861 35.996438,-1.52586413 32.0458825,1.10415985 C28.095327,3.73418384 14.9034642,11.0980931 13.0096585,20.328433 Z" id="路径-278" fill="#FFEFEF"></path>
                </g>
                <g id="编组-13" transform="translate(87.894206, 0.000000)">
                    <path d="M13.6653273,92.6732774 C13.5726002,106.287617 11.3030745,130.816886 40.6678774,143.353671 C70.0326803,155.890455 95.1143286,138.86523 101.274708,134.118792 C107.435087,129.372354 106.132737,123.252153 118.342377,126.069123 C130.552017,128.886094 134.537118,109.245907 132.544567,107.145684 C130.552017,105.045462 122.297472,95.7456006 120.319924,100.395531 C118.342377,105.045462 104.559558,78.3864309 100.433,76.7356948 C96.3064417,75.0849587 45.351735,60.7735767 37.6280125,60.7735767 C29.9042901,60.7735767 17.6889347,60.1761674 17.6889347,65.3784873 C17.6889347,70.5808072 13.7347268,69.7816566 13.6653273,92.6732774 Z" id="路径-267" fill="#FFD9D9"></path>
                    <path d="M32.8555656,103.163448 C37.0457702,103.163448 39.6144163,104.875878 40.5615038,108.30074" id="路径-269" stroke="#837172" stroke-width="5.09652" opacity="0.292457217" stroke-linecap="round"></path>
                    <path d="M62.6412588,109.218332 C66.9223356,106.226451 71.2034124,106.368629 75.4844892,109.644863" id="路径-270" stroke="#837172" stroke-width="5.09652" opacity="0.292457217" stroke-linecap="round"></path>
                    <path d="M45.698796,132.702877 C49.1521258,135.757626 52.5769872,136.087742 55.9733803,133.693225" id="路径-271" stroke="#6A5E5F" stroke-width="4.26748608" opacity="0.444312686" stroke-linecap="round"></path>
                    <path d="M60.4605184,120.823704 C54.3099657,112.743096 49.3962416,110.990448 45.7193461,115.565761 C39.3724632,123.46345 45.5029147,132.138348 53.0435209,137.030944 C48.5593464,137.450118 48.2614807,138.845663 35.7987479,133.854534 C28.106423,130.884748 16.9292001,108.220787 15.7960757,83.1370308 C15.5610204,68.5478914 24.1284925,52.5241496 30.2831706,52.5241496 C31.5610184,47.0395001 43.5485848,16.9884 83.8508878,16.9884 C124.153191,16.9884 141.944179,42.1500019 141.944179,59.6386689 C135.267633,67.1296837 120.846776,72.9201238 114.017407,75.0237299 C107.188038,77.127336 82.6830654,92.2154535 65.94381,81.3921743 C65.1735106,84.1718259 64.3622409,96.9937823 63.5100009,119.858044 L63.5100239,119.858045 C63.4750758,120.79565 62.6866656,121.527398 61.7490605,121.492449 C61.2411326,121.473517 60.7683652,121.228153 60.4605184,120.823704 Z" id="路径-281" fill="#2E2324" transform="translate(78.867760, 77.259981) scale(-1, 1) rotate(18.000000) translate(-78.867760, -77.259981) "></path>
                </g>
            </g>
            <g id="编组-70备份" transform="translate(0.000000, 254.648221)">
                <ellipse id="椭圆形" fill="#E68A68" cx="19.4075482" cy="19.9783584" rx="19.4075482" ry="5.13729216"></ellipse>
                <ellipse id="椭圆形备份-21" fill="#901619" cx="19.4075482" cy="19.4075482" rx="13.6994458" ry="2.28324096"></ellipse>
                <path d="M0,19.4075482 C2.48277492,22.6163482 8.95195764,24.2207483 19.4075482,24.2207483 C29.8631387,24.2207483 36.3323214,22.6163482 38.8150963,19.4075482 L38.8150963,85.3723549 C38.8150912,86.2623208 38.3390059,87.0842916 37.5670423,87.5271363 C34.4747563,89.3010574 28.4215916,90.1880179 19.4075482,90.1880179 C10.3935133,90.1880179 4.34035156,89.3010591 1.24806286,87.5271414 C0.476089069,87.0843022 1.08990133e-16,86.262326 0,85.372354 L0,19.4075482 L0,19.4075482 Z" id="矩形" fill="url(#linearGradient-1)"></path>
                <path d="M0,34.2486144 C5.22218008,35.9612404 11.6913628,36.8175534 19.4075482,36.8175534 C27.1237335,36.8175534 33.5929162,35.9612404 38.8150963,34.2486144 L38.8150963,71.2565177 C38.815098,72.06442 38.4222212,72.8218605 37.7617989,73.2872083 C34.7328794,75.4214509 28.6147958,76.4885722 19.4075482,76.4885722 C10.2003034,76.4885722 4.08222074,75.4214516 1.05330025,73.2872103 C0.392877109,72.8218635 9.89395192e-17,72.0644229 0,71.2565204 L0,34.2486144 L0,34.2486144 Z" id="矩形备份-101" fill="url(#linearGradient-2)"></path>
                <path d="M0,26.257271 C5.22218008,27.7264276 11.6913628,28.4610059 19.4075482,28.4610059 C27.1237335,28.4610059 33.5929162,27.7264276 38.8150963,26.257271 L38.8150963,28.4586086 C36.3206497,30.0353715 29.851467,30.823753 19.4075482,30.823753 C8.9636293,30.823753 2.49444658,30.0353715 0,28.4586086 L0,26.257271 Z" id="矩形备份-103" fill="url(#linearGradient-3)"></path>
                <path d="M0,84.4799155 C5.22218008,86.3826163 11.6913628,87.3339667 19.4075482,87.3339667 C27.1237335,87.3339667 33.5929162,86.3826163 38.8150963,84.4799155 L38.8150963,85.5165879 C38.8151023,86.4361575 38.3071195,87.2805025 37.4947009,87.7112972 C34.3808677,89.3624443 28.3518168,90.1880179 19.4075482,90.1880179 C10.4632818,90.1880179 4.43423169,89.3624448 1.32039779,87.7112984 C0.507981581,87.2805042 1.12614502e-16,86.4361613 0,85.5165941 L0,84.4799155 L0,84.4799155 Z" id="矩形备份-102" fill="url(#linearGradient-4)"></path>
                <path d="M20.2810764,19.4075482 C17.9373278,14.0656497 20.3099329,7.59646698 27.3988915,0" id="路径-252" stroke="#523D2F" stroke-width="2.48416616" stroke-linecap="round"></path>
            </g>
        </g>
    </g>
</svg>