<svg xml:space="preserve" style="enable-background:new 0 0 2731.08 1820.71;" viewBox="0 0 2731.08 1820.71" y="0px" x="0px" xmlns:xlink="http://www.w3.org/1999/xlink" xmlns="http://www.w3.org/2000/svg" id="레이어_1" version="1.1">
<style type="text/css">
	.st0{fill:none;}
	.st1{fill:#FBB6AF;}
	.st2{fill:#FFFFFF;stroke:#000000;stroke-width:1.5;stroke-linecap:round;stroke-linejoin:round;stroke-miterlimit:10;}
	.st3{stroke:#000000;stroke-width:1.5;stroke-linecap:round;stroke-linejoin:round;stroke-miterlimit:10;}
	.st4{fill:#182099;stroke:#000000;stroke-width:1.5;stroke-linecap:round;stroke-linejoin:round;stroke-miterlimit:10;}
	.st5{fill:none;stroke:#000000;stroke-width:0.75;stroke-linecap:round;stroke-linejoin:round;stroke-miterlimit:10;}
	.st6{fill:#12239B;stroke:#000000;stroke-width:1.5;stroke-linecap:round;stroke-linejoin:round;stroke-miterlimit:10;}
	.st7{fill:none;stroke:#000000;stroke-width:1.5;stroke-linecap:round;stroke-linejoin:round;stroke-miterlimit:10;}
	.st8{fill:#FFFFFF;}
	.st9{fill:#EDAEAE;}
	.st10{clip-path:url(#SVGID_4_);}
	.st11{fill:none;stroke:#12239B;stroke-width:6;stroke-linecap:round;stroke-linejoin:round;stroke-miterlimit:10;}
	.st12{fill:none;stroke:#FFFFFF;stroke-width:1.5;stroke-linecap:round;stroke-linejoin:round;stroke-miterlimit:10;}
	.st13{fill:url(#SVGID_5_);stroke:#000000;stroke-width:1.5;stroke-linecap:round;stroke-linejoin:round;stroke-miterlimit:10;}
	.st14{fill:#FFFFFF;stroke:#000000;stroke-width:0.75;stroke-linecap:round;stroke-linejoin:round;stroke-miterlimit:10;}
</style>
<pattern style="overflow:visible;" viewBox="0 -850.39 1275.59 850.39" id="SVGID_3_" patternUnits="userSpaceOnUse" height="850.39" width="1275.59" y="1335.55" x="727.74">
	<g>
		<rect height="850.39" width="1275.59" class="st0" y="-850.39"></rect>
	</g>
</pattern>
<rect height="1820.71" width="2731.08" class="st1"></rect>
<path d="M880.24,417.59c-7.41,18.09-6.14,38.88-11.35,57.42c-3.81,13.57-6.53,26.7-8.78,40.12
	c-0.69,4.11-4.71,12.59-3.6,16.91c3.32,12.72,30.66,27.79,41.39,34.41c27.96,17.28,59.03,20.92,90.61,11.07
	c47.6-14.82,90.24-54.85,81.53-109.24c-6.21-38.77-36.46-54.51-68.77-67.79c-19.29-7.92-40.83-22.76-62.56-21.26
	C916.28,380.8,896.11,401.06,880.24,417.59z" class="st2"></path>
<path d="M1134.1,1173.2c3.51,8.84,6.79,17.77,9.81,26.78c1.82,5.44,2.83,10.47,3.19,16.04c0.43,6.42,0.75,12.95,0,19.46
	c-0.69,5.89-1.56,13.1-6.59,16.81c-6.81,5.01-14.43,5.65-22.93,2.42c-3.15-1.2-11.84-7.45-14.99-10.58
	c-4.41-4.37-8.5-9.46-11.84-14.58c-6.77-10.32-12.63-21.07-15.07-33.1c-3.68-18.03-0.3-36.63-1.97-54.94" class="st3"></path>
<path d="M1113.49,1117.21c2.33,7.11,4.82,14.52,7.17,21.62c3.62,10.9,9.04,24.17,12.74,34.11
	c3.04,8.2,5.91,16.46,8.52,24.84c1.56,5.03,2.44,9.72,2.72,14.88c0.34,5.97,0.58,12.05-0.15,18.09c-0.64,5.48-1.48,12.18-5.99,15.67
	c-6.08,4.71-12.87,5.35-20.4,2.42c-2.78-1.09-10.49-6.85-13.25-9.72c-3.88-4.03-7.49-8.74-10.43-13.47
	c-5.93-9.55-11.37-19.55-13.47-30.7c-1.84-9.76-4.09-20.94-4.22-30.85c-0.19-14.32-1.86-28.75-6.38-42.35
	c-1.03-3.08-1.93-7.54-2.36-10.75c-0.6-4.65,1.07-9.36,4.35-12.72s7.94-5.16,12.61-5.48c7.52-0.51,15.18,2.78,19.95,8.59
	C1108.37,1105.54,1111.79,1112.09,1113.49,1117.21z" class="st4"></path>
<path d="M1082.8,1127.57c0.54,6.59,1.09,13.21,1.63,19.8c0.58,6.94,1.16,13.96,3.43,20.55
	c0.24,0.71,0.54,1.43,1.13,1.86c0.58,0.41,1.35,0.43,2.06,0.43c9.42,0,18.86-1.88,27.56-5.5c2.21-0.92,4.62-2.27,5.05-4.6
	c0.17-0.96-0.02-1.93-0.24-2.89c-1.07-4.75-2.72-9.36-4.35-13.96c-4.07-11.43-8.95-22.46-12.46-34.06
	c-7.37-0.71-14.92,0.41-21.37,4.05c-1.11,0.62-2.25,1.39-2.78,2.55C1082.5,1115.78,1082.46,1123.44,1082.8,1127.57z" class="st2"></path>
<path d="M1077.73,1109.87c1.09,17.88,4.18,35.46,4.39,53.35c0.11,8.31,7.6,38.3,16.64,53.2c2.4,3.96,4.82,9.63,8.03,13
	c2.29,2.4,8.69,7.22,11,8.14c6.25,2.46,11.88,1.91,16.96-2.03c3.75-2.91,4.45-8.54,4.99-13.12c0.6-5.07,0.41-10.15,0.13-15.16
	c-0.24-4.32-0.94-8.24-2.25-12.46c-2.16-7-4.75-13.72-6.79-20.75c-2.1-7.24-5.65-15.42-7.28-22.16
	c-3.25-13.53-10.17-25.8-12.33-39.54" class="st5"></path>
<path d="M1124.77,1159.88c-1.86-5.16-4.43-5.65-9.89-4.47c-5.46,1.16-13.08,3.51-21.02,5.91
	c-6.57,1.99-7.28,6.53-6.21,12.87c0.58,3.49,0.58,5.33,4.52,5.07c4.3-0.28,34.26-8.93,34.98-10.02
	C1127.87,1168.15,1125.93,1162.75,1124.77,1159.88z" class="st4"></path>
<path d="M1129.65,1159.95c-3.64,4.8-22.65,11.13-34.34,13.85c-3.66,0.86-13.53,2.38-13.53,2.38
	c0.21,2.83,2.14,12.63,3.1,14.09c13.08-0.54,27.15-4.32,40.51-9.74c5.18-2.1,9.51-5.4,9.51-5.4L1129.65,1159.95z" class="st4"></path>
<path d="M1131.28,1249.89c0.77-3.96,0.45-8.14-0.94-11.93" class="st5"></path>
<path d="M1274.73,1090.94c5.35,7.86,10.51,15.84,15.44,24c2.95,4.9,5.03,9.59,6.62,14.94
	c1.82,6.19,3.58,12.48,4.26,18.99c0.62,5.89,1.35,13.12-2.76,17.86c-5.55,6.38-12.85,8.67-21.84,7.39
	c-3.34-0.47-13.19-4.69-16.94-7.02c-5.25-3.3-10.36-7.39-14.75-11.63c-8.86-8.59-16.94-17.77-21.97-28.99
	c-7.54-16.79-8.31-35.67-13.96-53.18" class="st3"></path>
<path d="M1242.33,1040.82c3.83,6.42,7.88,13.12,11.73,19.53c5.91,9.85,14.13,21.6,19.89,30.47
	c4.77,7.32,9.38,14.77,13.77,22.37c2.63,4.56,4.5,8.95,5.91,13.94c1.63,5.76,3.21,11.63,3.83,17.68c0.56,5.48,1.22,12.23-2.42,16.61
	c-4.9,5.93-11.39,8.05-19.38,6.83c-2.95-0.45-11.73-4.39-15.05-6.57c-4.67-3.08-9.23-6.89-13.12-10.85
	c-7.88-8.01-15.37-16.57-19.87-27.02c-3.94-9.14-8.59-19.53-10.88-29.18c-3.32-13.94-8.11-27.64-15.5-39.93
	c-1.67-2.78-3.53-6.94-4.65-9.98c-1.61-4.41-1.01-9.38,1.46-13.36c2.46-3.98,6.62-6.77,11.11-8.11c7.22-2.14,15.42-0.62,21.37,4
	C1234.8,1030.56,1239.57,1036.19,1242.33,1040.82z" class="st4"></path>
<path d="M1214.67,1057.67c1.97,6.32,3.96,12.65,5.93,18.97c2.08,6.64,4.2,13.38,7.86,19.29
	c0.39,0.62,0.83,1.28,1.52,1.56c0.66,0.26,1.41,0.13,2.1-0.02c9.21-2.06,17.98-5.97,25.69-11.41c1.95-1.37,4-3.23,3.92-5.61
	c-0.04-0.96-0.43-1.88-0.86-2.76c-2.1-4.41-4.71-8.54-7.3-12.65c-6.49-10.26-13.66-19.95-19.63-30.51
	c-7.34,0.92-14.47,3.66-19.95,8.63c-0.94,0.86-1.88,1.84-2.14,3.08C1211.8,1046.21,1213.43,1053.71,1214.67,1057.67z" class="st2"></path>
<path d="M1205.85,1041.48c4.99,17.19,11.84,33.68,15.97,51.11c1.91,8.07,15.8,35.71,27.88,48.26
	c3.21,3.34,6.81,8.35,10.68,10.92c2.76,1.84,10.06,5.14,12.5,5.52c6.64,1.03,12.01-0.75,16.1-5.72c3.02-3.66,2.46-9.31,1.99-13.92
	c-0.51-5.07-1.82-10-3.19-14.82c-1.18-4.18-2.72-7.84-4.92-11.67c-3.64-6.36-7.64-12.35-11.18-18.76
	c-3.64-6.59-8.89-13.81-11.95-20.04c-6.14-12.48-15.57-22.95-20.7-35.88" class="st5"></path>
<path d="M1262.69,1080c-2.95-4.62-5.57-4.54-10.64-2.21c-5.07,2.33-11.99,6.29-19.21,10.36
	c-5.97,3.38-5.65,7.96-3.23,13.92c1.33,3.28,1.73,5.07,5.52,3.96c4.13-1.22,31.47-16.23,31.92-17.45
	C1267.53,1087.36,1264.45,1082.53,1262.69,1080z" class="st4"></path>
<path d="M1267.47,1078.97c-2.51,5.48-19.65,15.84-30.47,21.05c-3.4,1.63-12.67,5.29-12.67,5.29
	c0.84,2.72,4.86,11.86,6.1,13.06c12.65-3.38,25.54-10.17,37.38-18.39c4.6-3.19,8.09-7.34,8.09-7.34L1267.47,1078.97z" class="st4"></path>
<path d="M1285.24,1154.96c2.18,3.4,3.4,7.39,3.53,11.43" class="st5"></path>
<path d="M1264.24,818.71c0,0-1.8,71.06-6.25,107.33c-3.98,32.42,0.02,66.41,1.26,109.68
	c-3.73,17.17-16.34,25.05-34.3,29.16c-12.63,2.91-26.01-5.25-37.6-10.45c0,0-7.45-27.19-11.73-38.88
	c-13.36-36.5-25.93-76.03-46.61-109.75c-7.45,37.62-0.69,77.06-0.49,114.59c0.04,8.74,0.56,17.41,0.92,26.06
	c0.36,8.56-4.22,13.87-5.18,22.07c-1.99,17.04,3.28,37.49,2.91,54.57c-9.59,11.3-23.38,19.53-37.96,20.55
	c-10.45,0.73-22.33,0.58-27.85-8.5c-9.23-15.18-15.69-32.8-24.02-48.37c-3.45-6.44-7.92-10.34-12.23-15.48
	c-4.69-5.59-3.21-11.78-5.61-18.37c-12.1-33.16-45.5-90.65-52.09-126.51c-4.15-22.52-13.06-44.19-15.29-67.01
	c17.54-10.86,36.53-17.79,55.5-25.67c25.41-10.58,51.36-19.5,76.11-31.58c44-21.5,90.27-36.57,134.82-56.35
	c7.39,15.82,20.96,27.02,28.45,43.25C1250.79,797.26,1258.82,811.26,1264.24,818.71z" class="st2"></path>
<path d="M1126.93,1110.53c-9.59,11.3-25.86,22.97-40.42,23.98c-10.45,0.73-24.75,0.51-30.27-8.56" class="st5"></path>
<path d="M1125.99,1105.16c-9.59,11.3-25.86,22.97-40.42,23.98c-10.45,0.73-24.75,0.51-30.27-8.56" class="st5"></path>
<path d="M1259.05,1025.04c-3.73,17.17-16.34,25.05-34.3,29.16c-12.63,2.91-26.01-5.25-37.6-10.45" class="st5"></path>
<path d="M1258.69,1019.52c-3.73,17.17-16.34,25.05-34.3,29.16c-12.63,2.91-30.81-7.9-42.41-13.1" class="st5"></path>
<path d="M1256.7,818.86c0,0-1.8,71.06-6.25,107.33c-3.98,32.42,2.12,79.05,3.36,122.32" class="st5"></path>
<path d="M1073.66,1141.55c-9.23-15.18-18.84-39.37-27.17-54.96c-3.45-6.44-7.92-10.34-12.23-15.48
	c-4.69-5.59-3.21-11.78-5.61-18.37c-12.1-33.16-45.5-90.65-52.09-126.51c-4.15-22.52-13.06-44.19-15.29-67.01" class="st5"></path>
<path d="M1231.69,783.34c-57.61,65.39-148.16,101.74-235,108.98c-39.69-79.6-69.26-156.23-108.98-235.83
	c-18.63-37.34-36.7-76.73-58.51-112.3c5.33-30.19,20.88-57.06,37.55-82.77c4.28,22.42,10.38,24.02,29.31,36.8
	c23.36,15.78,54.06,16.91,79.92,5.27c32.07-14.45,47-40.53,47.3-75.19c0.13-16.31,5.27-13.49,1.43-29.35
	c14.02-2.33,27.3-7.3,41.34-9.63C1137.98,514.19,1195.87,643.74,1231.69,783.34z" class="st2"></path>
<path d="M852.52,717.89c-3.58,15.46-39.59,100.61-50.06,118.38c-4.99,8.48-8.99,17.49-14.28,25.8
	c-4.5,7.09-23.79,32.52-24.39,38.35c-10-37.06-19.98-75-22.99-113.02c-0.62-7.94-1.33-15.99-0.69-24.07
	c0.49-6.27-0.58-71.81-1.07-96.71c-0.58-30.51-6.59-87.72,9.57-115.27c3.43-5.85,8.41-10.58,13.32-15.22
	c36.59-34.64,75.02-65.6,111.61-100.24c15.05,38.05,30.02,76.99,52.05,111.68c12.16,19.14,10.34,26.14,7.9,48.99
	c-6.68,62.56,37.79,144.11,61.25,201.02c23.47,56.84,20.7,94.59,42.01,152.42c0,0-21.41,10.94-48.3,11.48
	c-19.55,0.41-65.24-10.58-67.06-12.27c0,0-19.74-51.64-22.42-75.39c-4.05-36.18,4.73-73.69-5.01-108.76
	c-3.15-11.35-12.89-19.29-21.77-27.02c-22.35-19.5-39.8-44.62-50.29-72.37" class="st6"></path>
<path d="M749.02,572.98c20.79,30.32,45.48,57.72,70.1,85.04" class="st5"></path>
<path d="M929.29,559.52c-8.97-3.53-10.66-0.98-17.79,5.37c-6.89,6.12-16.81,17.06-22.76,24.11
	c-21.6-46.59-24.43-102.49-27.47-141.69" class="st7"></path>
<path d="M863.73,472.53c-28.52,27.41-55.88,55.99-82,85.68c-8.56,9.74-17.19,19.95-21.09,32.33" class="st5"></path>
<path d="M1215.98,559.11c17.11,12.53,59.95,19.76,81.04,17.47c12.01-1.31,21.54-2.98,33.55-4.28
	c-10.73-27.77-9.74-62.8-35.76-77.27c-31.94-17.75-59.95-45.6-83.26-73.74c-19.95-24.07-45.41-51.73-76.43-55.54
	c-11.58-1.41-17.3,0.21-34.71,3.1c-34.79,5.78-78.81,15.89-114.05,17.36c3.66-0.15,15.84,28.37,17.62,32.24
	c5.14,11.24,9.33,22.97,11.73,35.11c6.96,35.13-1.54,67.85,17.32,100.33c63.05,108.61,121.08,220.14,173.83,334.11
	c35.31-30.23,63.35-66.61,80.78-109.68c-10.68-24.47-23.19-55.32-38.37-75.06c-7.17-9.33-23.55-32.12-23.55-32.12
	c-5.27-30-5.31-60.63-7.62-90.99c-2.25-29.5-8.61-65.02-8.61-65.02" class="st6"></path>
<path d="M1238.37,688.62c-26.98-38.95-50.87-57.57-74.74-82.39" class="st7"></path>
<path d="M1208.44,506.42c-14.07-46.63-34.06-91.46-59.33-133.09" class="st5"></path>
<path d="M1157.83,388.21c-13.68-7.34-34.13-5.33-49.29-1.97c-22.63,5.01-61.58,9.46-83.91,11.78" class="st5"></path>
<path d="M814.55,352.43c-2.83-13.32-2.23-27,1.11-40.02c5.5-21.39,18.43-40.94,35.88-53.98l12.82-6.12
	c21.11-5.37,44.45-3.15,64.53,6.02c12.23,5.57,23.23,13.7,31.82,24.28c16.51,20.32,23.25,46.48,29.55,71.68
	c6.25,25.14,11.37,50.89-0.15,73.48c-6.89,13.55-15.59,25.11-31.75,32.82l-3.88,1.84c-18.05,8.63-30.62,7.22-45.5,4.07
	c-24.81-5.25-41.62-25.39-57.25-46.05C836.09,399.75,819.99,378.06,814.55,352.43z" class="st8"></path>
<g>
	<path d="M972.93,389.05c-7.69-5.78-9.25-16.72-3.45-24.41c5.22-6.96,14.67-8.86,22.1-4.9c2.14,8.99,4,18.03,4.86,26.93
		C990.48,393.41,980.25,394.55,972.93,389.05z" class="st9"></path>
</g>
<path d="M906.81,420.65c0.34-9.61-7.19-17.68-16.83-18.03c-9.61-0.34-17.68,7.19-18.03,16.83
	c-0.34,9.61,7.19,17.68,16.83,18.03S906.49,430.26,906.81,420.65z" class="st9"></path>
<path d="M897.93,355.33c-26.7,0.64-38.05,22.37-38.05,22.37" class="st7"></path>
<path d="M928.33,340.81c17.28-20.36,41.3-15.54,41.3-15.54" class="st7"></path>
<path d="M887.18,385.77c2.21,4.37,6.19,6.79,8.91,5.42c2.72-1.37,3.15-6.02,0.96-10.38c-2.21-4.37-6.19-6.79-8.91-5.42
	C885.42,376.76,884.99,381.4,887.18,385.77z"></path>
<path d="M957.17,352.33c2.01,4.45,1.39,9.08-1.39,10.34c-2.78,1.26-6.66-1.33-8.69-5.78c-2.01-4.45-1.39-9.08,1.39-10.34
	C951.28,345.28,955.16,347.87,957.17,352.33z"></path>
<path d="M917.75,354.38c0.24,10.26,8.82,20.68,13.9,29.12c3.1,5.14,8.46,10.75,4.07,16.76" class="st7"></path>
<path d="M950.75,440.9c-13.4,2.1-25.09-11.86-32.24-20.83c15.74-3.08,33.21-9.87,45.84-19.74c0,0,3,15.54,1.76,23.74
	C964.9,432,959.5,439.53,950.75,440.9z" class="st2"></path>
<path d="M814.55,352.43c-2.83-13.32-2.23-27,1.11-40.02c5.5-21.39,18.43-40.94,35.88-53.98l12.82-6.12
	c21.11-5.37,44.45-3.15,64.53,6.02c12.23,5.57,23.23,13.7,31.82,24.28c16.51,20.32,23.25,46.48,29.55,71.68
	c6.25,25.14,11.37,50.89-0.15,73.48c-6.89,13.55-15.59,25.11-31.75,32.82l-3.88,1.84c-18.05,8.63-30.62,7.22-45.5,4.07
	c-24.81-5.25-41.62-25.39-57.25-46.05C836.09,399.75,819.99,378.06,814.55,352.43z" class="st7"></path>
<path d="M1023.33,519.59c1.43-23.85,39.67-6.32,51.19-0.36c-3.47-42.95-27.83-102.34-58.54-133.64" class="st7"></path>
<path d="M1128.54,899.34c-1.31-13.23-4.22-25.84-7.22-38.39" class="st5"></path>
<path d="M1126.63,884.2c10.23-9.46,12.87-17.94,12.74-31.32" class="st5"></path>
<line y2="911.48" x2="1082.38" y1="907.18" x1="1118.47" class="st5"></line>
<line y2="940.36" x2="1079.06" y1="911.78" x1="1122.5" class="st5"></line>
<line y2="894.5" x2="1177.37" y1="902.96" x1="1138.58" class="st5"></line>
<path d="M872.53,737.91c27.28,23.98,56.14,50.53,74.51,83.05" class="st7"></path>
<path d="M990.48,710.86c43.06,28.28,87.63,64.25,138.63,77.1" class="st5"></path>
<g>
	<path d="M860.42,429.28c-13.96,7.37-38.11,0.3-43.89-15.69c-5.16-14.34,11.26-26.12,23.94-19.21" class="st2"></path>
	<path d="M847.91,411.31c-4.28-8.22-17.13-3.4-19.12,4.28" class="st7"></path>
	<path d="M847.27,410.39c-5.14-2.55-8.05,5.5-6.98,9.36" class="st7"></path>
</g>
<path d="M914.93,246.86c-33.46-16.68-78.13,4.45-97.99,33.08c-23.64,34.06-9.91,101.98,30.06,120.48
	c-9.23-20.55,1.5-43.61,11.52-62.86c0,0-4.9,20.75-4.3,33.57c22.31-16.68,65.22-38.28,71.6-68.56c-4.07,13.23-8.46,26.25-17.13,37.7
	c18.11-13.51,34.21-32.09,28.41-57.17c20.17,11.33,25.82,30.3,36.89,48.28c-1.07-9.96-3.47-23.02-9.19-31.69
	c8.67,13.27,16.64,28.82,22.44,43.36c1.67-31.82-17.54-77.57-46.37-93.58C936.36,246.97,917.24,238.85,914.93,246.86z" class="st6"></path>
<path d="M927.24,272.45c-19.14,3.45-35.22,17.86-40.19,33.29" class="st7"></path>
<path d="M922.85,266.82c-6.94-4.54-23.23,2.08-27.64,7.24" class="st7"></path>
<path d="M842.84,299.14c-15.52,28.95-20.47,71.3,1.33,99.19" class="st7"></path>
<path d="M820.81,338.86c-0.06,16.91-0.77,45.99,16.85,56.05" class="st7"></path>
<path d="M936.27,269.21c6.79-6.92,20.21,7.13,23.27,11.84" class="st7"></path>
<path d="M1438.07,294.37c0,0-2.83,35.67-23.62,62.95c-3.21,4.2-20.83,16.94-22.44,21.2
	c-3.45,9.18,1.28,20.32,4.28,30.55c4.92,16.83,6.74,33.38,10.3,50.64c3.38,16.44,10.28,38.54,8.16,54.6
	c43.21,1.43,86.16,5.14,127.99-10.15c39.67-14.49,90.27-68.68,80.33-115.64c-12.03-1.93-21.9-6.38-32.8-11.73
	c-8.78-4.3-17.56-10.45-21.02-20.62c-6.62-19.44-0.71-28.05,1.24-43.85c-20.53-2.29-31.54-12.55-52.18-13.77
	C1494.46,297.15,1461.64,296.19,1438.07,294.37z" class="st2"></path>
<path d="M1632.09,983.23c4.28,17.26-5.22,45.63,23.04,42.35c21.41-2.46,23.55-21.22,17.41-38.65
	C1667.84,973.65,1649.26,966.93,1632.09,983.23z" class="st2"></path>
<path d="M1482.9,983.44c0.79,11.78-4.09,20.13-7.41,30.85c-1.82,5.91-2.1,6.1,3.25,9.57
	c6.59,4.28,15.35,7.39,23.12,5.76c15.84-3.32,25.97-28.82,18.03-42.67C1513.77,976.29,1492.11,965.58,1482.9,983.44z" class="st2"></path>
<path d="M1627.65,1098.03c-0.26-12.23,2.57-23.04,3.9-34.79c1.33-11.9,2.29-22.84,2.59-34.98
	c0.28-11.11-1.82-23.62,9.91-25.14c3.98-0.51,14.09-0.86,17.94,0.73c7.71,3.19,5.46,23.17,5.59,29.03
	c0.32,14.13-0.75,28.39,1.28,42.41c1.03,7.07,5.74,14.79,3.79,21.8c-3.3,11.9-14.58,13.7-24.34,15.09
	C1637.52,1113.74,1630.93,1107.88,1627.65,1098.03z" class="st2"></path>
<path d="M1628.79,1090.08c9.87-7.24,10.3-6.14,10.04-17.47c-0.34-14.45-0.58-27-0.09-43.44
	c0.36-12.33-5.67-34.79-5.67-34.79c-2.12,39.31-18.18,85.56-1.37,123.62c8.86,20.06,34.92,5.46,44.51-16.96
	c13.42-31.39,11.56-57.68-0.09-110.26c-3.58,9.42-12.08,17.71-14.92,27.04c-2.18,7.19-0.43,17.19-0.28,24.75
	c0.19,9.4-0.49,18.41-0.69,27.68c-0.24,10.75,3.85,15.24,11.26,23.96" class="st2"></path>
<path d="M1625.15,1094.41c4.32-4.28,14.3-4.13,19.95-4.54c5.99-0.43,12.05-0.43,17.88,0.66
	c3.55,0.66,12.59,3.06,14.41,7.04c1.69,3.7-3.85,12.25-6.1,15.5c-3.45,5.01-8.39,9.78-13.79,12.31
	C1637.78,1134.6,1628.66,1114.45,1625.15,1094.41z" class="st2"></path>
<g>
	<path d="M1675.44,1102.82c-7.96,15.31-35.11,25.03-45.67,6.83c-7.56-13.02-4.6-35.91-4.86-54.83
		c-2.23,21.35-9.27,41.21,1.22,61.1c16.25,30.83,45,11.2,54.6-11.22c6.64-15.54,4.99-33.53,4.82-50.38
		C1682.94,1067.15,1684.01,1086.36,1675.44,1102.82z" class="st2"></path>
</g>
<path d="M1635.34,1019.77c8.09,6.64,18.61,10.96,28.65,14.15" class="st7"></path>
<path d="M1634.36,1032.68c9.4-4.05,22.2-5.5,29.95-12.29" class="st7"></path>
<path d="M1634.53,1041.61c9.57,4.09,20.96,3.94,30.38,8.01" class="st7"></path>
<path d="M1634.08,1050.26c9.36-3.32,19.25-6.68,28.78-9.68" class="st7"></path>
<path d="M1634.25,1057.88c10.19,3.1,20.55,5.74,30.38,8.63" class="st7"></path>
<path d="M1633.76,1064.65c9.38-1.65,24.6-4.22,31.88-9.29" class="st7"></path>
<path d="M1634.63,1071.86c9.44,2.57,19.1,6.64,28.93,7.54" class="st7"></path>
<path d="M1634.18,1080.64c8.95-2.76,20.62-5.03,29.2-9.36" class="st7"></path>
<path d="M1442.63,1086.02c3.85-11.6,10.13-20.83,15.31-31.47c5.25-10.77,9.81-20.77,14.15-32.09
	c3.98-10.36,6.19-22.87,17.75-20.38c3.92,0.84,13.57,3.9,16.68,6.7c6.19,5.59-2.61,23.66-4.45,29.23
	c-4.43,13.42-10.21,26.51-12.97,40.38c-1.39,7,0.45,15.86-3.73,21.82c-7.09,10.13-18.33,8.03-27.98,6.08
	C1446.67,1104.11,1442.41,1096.38,1442.63,1086.02z" class="st2"></path>
<path d="M1446.35,1078.89c11.71-3.51,11.75-2.36,15.31-13.1c4.52-13.72,8.48-25.63,14.45-40.98
	c4.47-11.5,6.29-34.68,6.29-34.68c-15.16,36.33-45.78,74.55-42.65,116.02c1.65,21.88,31.09,16.83,47.62-1.09
	c23.14-25.09,30.21-50.49,36.83-103.93c-6.53,7.66-17.32,12.65-23.1,20.49c-4.47,6.06-6.17,16.06-8.54,23.23
	c-2.95,8.93-6.62,17.19-9.91,25.86c-3.81,10.06-1.48,15.65,2.59,26.36" class="st2"></path>
<path d="M1441.47,1081.76c5.5-2.57,14.86,0.88,20.32,2.4c5.8,1.61,11.5,3.64,16.61,6.59
	c3.13,1.8,10.83,7.11,11.22,11.45c0.36,4.07-7.73,10.23-10.94,12.57c-4.92,3.58-11.2,6.42-17.11,6.98
	C1439.91,1123.85,1438.09,1101.82,1441.47,1081.76z" class="st2"></path>
<g>
	<path d="M1486.05,1106.51c-12.61,11.75-41.47,11.84-45.33-8.84c-2.76-14.79,7.66-35.37,13.77-53.29
		c-9.23,19.35-22.52,35.73-19.31,57.98c4.99,34.49,38.67,25.63,55.2,7.71c11.45-12.42,15.93-29.93,21.39-45.86
		C1505.06,1075.42,1499.62,1093.87,1486.05,1106.51z" class="st2"></path>
</g>
<path d="M1476.05,1014.85c5.42,8.95,13.85,16.55,22.25,22.91" class="st7"></path>
<path d="M1470.8,1026.67c10.21-0.69,22.76,2.25,32.35-1.54" class="st7"></path>
<path d="M1468,1035.15c7.64,7.04,18.43,10.73,25.95,17.73" class="st7"></path>
<path d="M1464.66,1043.15c9.93,0.02,20.36,0.15,30.34,0.51" class="st7"></path>
<path d="M1462.26,1050.37c8.56,6.34,17.43,12.29,25.76,18.28" class="st7"></path>
<path d="M1459.56,1056.58c9.4,1.58,24.6,4.26,33.16,1.91" class="st7"></path>
<path d="M1457.96,1063.69c8.05,5.57,15.78,12.65,24.73,16.79" class="st7"></path>
<path d="M1454.59,1071.8c9.36,0.39,21.11,2.16,30.64,0.96" class="st7"></path>
<path d="M1373.64,789.76c5.72,28.15,33.49,87.93,49.35,111.16c2.53,3.7,2.1,7.62,4.03,10.92
	c1.58,2.68,6.92,8.63,9.4,10.75c11.28,19.38,29.97,54.98,37.98,67.68c27.34,16.31,55.11,3.47,55.11,3.47
	c4.69-14.22-4.18-103.22-8.52-124.61c6.23,2.36,44.43,57.49,53.08,64.17c21.62,16.68,51.38,56.31,51.38,56.31
	c13.6,15.99,52.43,9.53,58.71-11.22c0,0-2.65-59.11-4.45-70.1c-0.28-1.73-1.18-3.85-1.16-5.59c0.04-3.25,1.91-5.52,1.43-8.8
	c-0.45-3.04-3.38-5.85-4.32-8.82c-5.16-16.01-4.05-32.89-6.89-49.29c-2.63-15.16-1.61-38.97-9.93-51.9" class="st6"></path>
<path d="M1618.25,981.49c14.92,15.72,58.9,8.2,66.52-12.8" class="st5"></path>
<path d="M1617.42,975.65c14.92,15.72,58.9,8.2,66.52-12.8" class="st5"></path>
<path d="M1466.33,977.68c31.3,20.13,62.63,5.05,62.63,5.05" class="st5"></path>
<path d="M1462.37,972.16c33.25,20.21,66.86,4.5,66.86,4.5" class="st5"></path>
<path d="M1677.13,986.14c0,0-2.76-63.95-4.54-74.94c-0.28-1.73-1.18-3.85-1.16-5.59c0.04-3.25,1.91-5.52,1.43-8.8
	c-0.45-3.04-3.38-5.85-4.32-8.82c-5.16-16.01-4.05-32.89-6.89-49.29c-2.63-15.16-1.61-38.97-9.93-51.9" class="st5"></path>
<path d="M1381.67,790.7c5.72,28.15,33.49,87.93,49.35,111.16c2.53,3.7,2.1,7.62,4.03,10.92
	c1.58,2.68,6.92,8.63,9.4,10.75c11.28,19.38,29.97,54.98,37.98,67.68" class="st5"></path>
<path d="M1203.69,412.02c12.25,14.54,41.39,46.82,52.54,57.32c14.26,13.4,24.15,17.62,41.28,27.34
	c0,0,11.41,16.49,15.89,30.83c4.45,14.24,29.44,112.13,29.44,112.13c-5.1,26.33-1.01,50.61,4.6,77.85
	c6.34,30.75,16.94,61.53,16.94,61.53c35.58,37.72,95.73,50.89,133.94,55.26c46.29,5.29,133.51-0.58,168.8-35.58
	c-2.8-24.79-1.82-167.88,0.39-182.46c1.61-10.66,5.95-37.68,15.27-44.96c26.91-5.07,52.9-7.28,80.22-12.85
	c22.57-4.58,44.6-14.13,66.14-18.26c-34.21-33.49-47.74-44.15-73.99-89.41c-10.77-18.56-21.15-33.34-40.59-41.71
	c-27.28-11.78-39.46-18.78-66.29-30.12c-16.14-6.83-86.5-40.53-86.5-40.53c3.43,27.98,4.56,48.52-13.55,70.5
	c-25.07,30.45-83.82,36.23-105.7-7.11c-12.46-24.66-13.87-45.37-1.54-74.91c-14.11,1.82-85.3-0.04-99.96,0.88
	c-34.36,2.16-49.07,19.72-70.76,44.83C1256.31,388.66,1222.12,401.46,1203.69,412.02z" class="st2"></path>
<path d="M1518.93,861.34c-3.21-8.89-5.95-18.2-9.83-26.93" class="st5"></path>
<g>
	<g>
		<defs>
			<path d="M1203.69,412.02c12.25,14.54,41.39,46.82,52.54,57.32c14.26,13.4,24.15,17.62,41.28,27.34
				c0,0,11.41,16.49,15.89,30.83c4.45,14.24,29.44,112.13,29.44,112.13c-5.1,26.33-1.01,50.61,4.6,77.85
				c6.34,30.75,16.94,61.53,16.94,61.53c35.58,37.72,95.73,50.89,133.94,55.26c46.29,5.29,133.51-0.58,168.8-35.58
				c-2.8-24.79-1.82-167.88,0.39-182.46c1.61-10.66,5.95-37.68,15.27-44.96c26.91-5.07,52.9-7.28,80.22-12.85
				c22.57-4.58,44.6-14.13,66.14-18.26c-34.21-33.49-47.74-44.15-73.99-89.41c-10.77-18.56-21.15-33.34-40.59-41.71
				c-27.28-11.78-39.46-18.78-66.29-30.12c-16.14-6.83-86.5-40.53-86.5-40.53c3.43,27.98,4.56,48.52-13.55,70.5
				c-25.07,30.45-83.82,36.23-105.7-7.11c-12.46-24.66-13.87-45.37-1.54-74.91c-14.11,1.82-85.3-0.04-99.96,0.88
				c-34.36,2.16-49.07,19.72-70.76,44.83C1256.31,388.66,1222.12,401.46,1203.69,412.02z" id="SVGID_2_"></path>
		</defs>
		<clipPath id="SVGID_4_">
			<use style="overflow:visible;" xlink:href="#SVGID_2_"></use>
		</clipPath>
		<g class="st10">
			<path d="M1247.96,356.46c186.95-4.26,376.65,30.85,558.3,72.52" class="st11"></path>
			<path d="M1228.14,388.55c186.95-4.26,376.65,30.85,558.3,72.52" class="st11"></path>
			<path d="M1212.83,421.7c218.06-4.97,439.36,36.53,651.24,85.73" class="st11"></path>
			<path d="M1191.12,452.23c224.64,6.02,439.36,36.53,651.24,85.73" class="st11"></path>
			<path d="M1227.24,490.34c203.16,0.86,376.65,30.85,558.3,72.52" class="st11"></path>
			<path d="M1250.7,522.75c191.13,16.14,357.4,32.8,528.28,72.69" class="st11"></path>
			<path d="M1267.55,560.95c137.99,8.09,327.09,37.04,453.17,45.54" class="st11"></path>
			<path d="M1290.68,627.15c141.42,33.21,273.94,42.65,408.44,39.89" class="st11"></path>
			<path d="M1298.56,663.1c146.55,34.92,250.52,46.31,401.1,29.7" class="st11"></path>
			<path d="M1326.03,694.66c109.36,40.02,230.33,50.34,364.15,34.79" class="st11"></path>
			<path d="M1320.46,721.98c115.94,61.9,318.8,57.77,390.42,30.4" class="st11"></path>
			<path d="M1344.93,768.14c112.51,46.61,227.48,55.07,338.33,15.27" class="st11"></path>
			<path d="M1308.06,602.98c146.04,19.31,297.09,32.42,444.69,33.7" class="st11"></path>
		</g>
	</g>
	<g>
		<path d="M1203.69,412.02c12.25,14.54,41.39,46.82,52.54,57.32c14.26,13.4,24.15,17.62,41.28,27.34
			c0,0,11.41,16.49,15.89,30.83c4.45,14.24,29.44,112.13,29.44,112.13c-5.1,26.33-1.01,50.61,4.6,77.85
			c6.34,30.75,16.94,61.53,16.94,61.53c35.58,37.72,95.73,50.89,133.94,55.26c46.29,5.29,133.51-0.58,168.8-35.58
			c-2.8-24.79-1.82-167.88,0.39-182.46c1.61-10.66,5.95-37.68,15.27-44.96c26.91-5.07,52.9-7.28,80.22-12.85
			c22.57-4.58,44.6-14.13,66.14-18.26c-34.21-33.49-47.74-44.15-73.99-89.41c-10.77-18.56-21.15-33.34-40.59-41.71
			c-27.28-11.78-39.46-18.78-66.29-30.12c-16.14-6.83-86.5-40.53-86.5-40.53c3.43,27.98,4.56,48.52-13.55,70.5
			c-25.07,30.45-83.82,36.23-105.7-7.11c-12.46-24.66-13.87-45.37-1.54-74.91c-14.11,1.82-85.3-0.04-99.96,0.88
			c-34.36,2.16-49.07,19.72-70.76,44.83C1256.31,388.66,1222.12,401.46,1203.69,412.02z" class="st7" id="SVGID_1_"></path>
	</g>
</g>
<path d="M1561.03,418.38c18.86-22.91,21.3-44.55,19.16-71.19c-10.79-5.14-18.43-8.8-18.43-8.8
	c3.43,27.98,4.56,48.52-13.55,70.5c-25.07,30.45-83.82,36.23-105.7-7.11c-12.46-24.66-13.87-45.37-1.54-74.91
	c-3.77,0.49-11.6,0.71-21.35,0.79c-9.96,30.64-6.85,54.23,7.02,81.68C1454.47,464.43,1529.17,457.09,1561.03,418.38z" class="st6"></path>
<path d="M1592.03,231.94c-1.33-13.55-6.02-26.42-13.12-37.81c-11.69-18.73-29.93-33.46-50.49-40.64l-14.07-1.97
	c-21.73,1.24-43.31,10.41-59.71,25.2c-9.98,8.99-18.03,20.08-23.02,32.76c-9.61,24.36-8.16,51.32-6.53,77.25
	c1.61,25.86,4.52,51.94,22.31,70.01c10.66,10.83,22.44,19.25,40.19,21.73l4.24,0.6c19.8,2.78,31.37-2.36,44.6-9.85
	c22.07-12.48,37.23-32.71,45.88-57.14C1590.96,287.58,1594.58,257.99,1592.03,231.94z" class="st8"></path>
<g>
	<path d="M1452.07,314.62c5.59-7.84,3.77-18.73-4.07-24.32c-7.09-5.05-16.66-4.03-22.55,1.99
		c0.66,9.23,1.63,18.39,3.49,27.15C1436.65,324.07,1446.76,322.08,1452.07,314.62z" class="st9"></path>
</g>
<ellipse ry="17.43" rx="17.43" cy="318.92" cx="1541.08" class="st9" transform="matrix(0.2408 -0.9706 0.9706 0.2408 860.4664 1737.8599)"></ellipse>
<path d="M1513.41,259.84c25.65-7.43,43.01,9.85,43.01,9.85" class="st7"></path>
<path d="M1480.05,255.17c-22.63-14.2-44.06-2.36-44.06-2.36" class="st7"></path>
<path d="M1532.83,285.61c-0.77,4.82-3.85,8.33-6.87,7.86c-3.02-0.49-4.82-4.8-4.05-9.61s3.85-8.33,6.87-7.86
	C1531.8,276.49,1533.62,280.8,1532.83,285.61z"></path>
<path d="M1456.01,274.84c-0.58,4.86,1.41,9.08,4.45,9.44c3.04,0.36,5.95-3.28,6.53-8.14c0.58-4.86-1.41-9.08-4.45-9.44
	C1459.52,266.37,1456.59,270.01,1456.01,274.84z"></path>
<path d="M1494.23,264.93c2.89,9.85-2.16,22.37-4.47,31.97c-1.41,5.82-4.82,12.8,1.18,17.21" class="st7"></path>
<path d="M1592.03,231.94c-1.33-13.55-6.02-26.42-13.12-37.81c-11.69-18.73-29.93-33.46-50.49-40.64l-14.07-1.97
	c-21.73,1.24-43.31,10.41-59.71,25.2c-9.98,8.99-18.03,20.08-23.02,32.76c-9.61,24.36-8.16,51.32-6.53,77.25
	c1.61,25.86,4.52,51.94,22.31,70.01c10.66,10.83,22.44,19.25,40.19,21.73l4.24,0.6c19.8,2.78,31.37-2.36,44.6-9.85
	c22.07-12.48,37.23-32.71,45.88-57.14C1590.96,287.58,1594.58,257.99,1592.03,231.94z" class="st7"></path>
<path d="M1488.85,357.36c13.4-2.06,20.36-18.88,24.47-29.59c-15.95,1.8-34.64,0.6-49.65-5.01c0,0,1.82,15.72,5.48,23.17
	C1472.69,353.14,1480.09,358.71,1488.85,357.36z" class="st2"></path>
<path d="M1314.81,339.1c-2.12,50.68-9.76,110.07-8.84,161.16" class="st5"></path>
<path d="M1671.97,568.4c-1.24-55.39,4.67-116.69,11.37-171.56" class="st5"></path>
<path d="M1395.44,555.17c42.46,56.59,102.77,161.63,175.46,197.94" class="st5"></path>
<path d="M1335.75,614.37c14.86,53.12,29.08,99.37,53.53,148.78" class="st2"></path>
<path d="M1515.72,852.13c-7.64-1.11-23.02-9.33-22.87-18.8" class="st5"></path>
<path d="M1623.8,822.61c4.37,13.6,26.93,22.93,39.63,26.48" class="st5"></path>
<path d="M1398.69,836.33c3.13-4.8,7-8.86,9.23-14.09c1.73-4.07,1.54-8.56,3.08-12.4" class="st5"></path>
<path d="M1520.97,142.87c53.12-14.97,98.17,35.33,104.76,83.18c3.75,27.11-1.13,56.59-15.74,75.47
	c-13.75,17.73-27.21,27.73-43.57,42.29c14.6-26.74,22.67-51.04,23.1-82.79" class="st6"></path>
<g>
	<path d="M1577.79,315.12c15.78,0.26,34.13-16.96,32.05-33.85c-1.88-15.14-21.86-18.22-30.04-6.32" class="st2"></path>
	<path d="M1580.83,293.45c0.11-9.27,13.75-10.77,18.99-4.82" class="st7"></path>
	<path d="M1580.96,292.31c3.43-4.58,9.68,1.26,10.45,5.2" class="st7"></path>
</g>
<path d="M1520.97,142.87l-0.26-0.04c-18.13-6.83-35.33-3.32-52.18,4.13c-17.73,7.84-38.6,30.4-45.73,69.9
	c-2.18,12.03-8.24,24.54-16.87,33.19c17.04,3.68,47.6,9.87,61.53-3.9c8.76-8.65,11.43-25.78,15.29-37.21
	c2.23-6.57,4.77-13.6,10.43-17.62s13.15,1.41,15.29,8.01c3.85-5.78,15.03-9.87,19.38-4.45c4.35,5.42,4.88,12.85,5.25,19.78
	c0.88,17.32,4.43,39.18,17.41,52.61c8.11,8.39,40.92,17.94,51.77,10.02c-5.95-10.68-13.1-24.39-11.93-36.57" class="st6"></path>
<path d="M1511.95,172.35c-3.62-9.55-16.46-12.97-25.91-9.08c-9.44,3.88-15.76,12.97-19.83,22.33
	s-6.44,19.44-11.03,28.56c-5.48,10.92-14.09,20.25-24.54,26.59" class="st7"></path>
<path d="M1444.45,191.84c-5.27,10.71-10.75,21.67-18.58,30.75c-3.98,4.6-18.88,19.78-27.81,6.36" class="st7"></path>
<path d="M1523.9,173.23c4.62-6.49,15.27-1.35,19.72,2.51c13.27,11.48,15.05,35.71,14.54,51.75" class="st7"></path>
<path d="M1593.12,222.47c10.81,22.59,19.31,45.65,47.1,47.81" class="st7"></path>
<path d="M1533.88,156.1c15.52-4.32,34.9,6.66,38.54,22.84" class="st7"></path>
<g>
	<path d="M1998.89,417.22c-11.71-21.41,6.21-44.23,25.97-47.74c17.45-3.1,30.85,5.8,43.7,16.4
		c31.71,26.21,29.61,71.34-16.64,77.93C2040.62,465.44,1997.32,435.01,1998.89,417.22z" class="st6"></path>
	<path d="M2075.51,392.66c14.41,13.08,24.13,28.33,19.01,48.17c-4.26,16.46-24.26,32.52-41.84,22.25" class="st7"></path>
	<path d="M2059.54,379.43c-22.74-11.65-56.65,9.7-50.66,36.01" class="st7"></path>
	<path d="M2041.13,386.95c-10.9,0-36.25,19.87-22.91,31.17" class="st7"></path>
	<path d="M2024.19,430.84c22.57-0.15,41.11-13.04,47.1-35.22" class="st7"></path>
	<path d="M2031.43,435.68c15.33,2.18,29.82-0.04,36.8-15.74" class="st7"></path>
</g>
<path d="M1894.43,548.83c-25.31,12.8-57.98,12.82-65.45,45.45c-2.61,11.43-9.61,32.61-6.7,44.08
	c3.62,14.34,31.86,22.65,43.93,26.7c22.72,7.62,48.47,11.15,72.13,12.91c13.47,1.01,29.14,5.37,42.26-0.28
	c22.5-9.7,30.17-41,24.13-62.35c-9.91-34.98-47.32-84.91-89.86-62.67" class="st2"></path>
<g>
	<path d="M1876.12,1115.26c0,0,5.18-3.7,9.12-9.21c8.01-11.2-29.14-59.58-32.16-72.56
		c3.25-1.33,51.88,17.24,60.53,18.07c-3.55,11.78,10.41,56.54,10.38,62.18c-0.02,5.14-0.9,11.13-2.03,16.08
		c-2.5,10.9-17.41,16.21-26.51,13.04C1888.45,1140.4,1871.8,1126.72,1876.12,1115.26z" class="st2"></path>
	<g>
		<path d="M1813.82,1171.49c7.73-8.37,16.96-13.51,25.61-20.4c8.76-6.98,16.61-13.6,24.73-21.5
			c7.41-7.24,13.87-17.19,24.04-9.44c3.45,2.63,11.58,9.98,13.57,13.92c3.96,7.9-10.75,19.59-14.45,23.64
			c-8.91,9.7-18.99,18.48-26.48,29.37c-3.79,5.5-5.1,14.22-11.15,17.45c-10.3,5.5-20.3-1.73-28.84-8.09
			C1811.35,1189.41,1809.98,1180.54,1813.82,1171.49z" class="st4"></path>
		<path d="M1819.85,1167.01c12.42,2.53,12.05,3.58,19.18-4.2c9.1-9.93,17.04-18.52,28.11-29.18
			c8.29-7.99,18.11-27.56,18.11-27.56c-27.15,24.75-69.71,43.72-81.23,81.81c-6.08,20.08,23.79,29.78,45.84,21.92
			c30.85-11,48.17-31.77,73.16-75.73c2.36-5.48,1.2-12.55,1.2-12.55c-15.42,21.37-26.89,18.67-32.14,21.28
			c-6.38,3.19-11.48,11.2-16.27,16.38c-5.95,6.44-12.33,11.97-18.48,18.03c-7.15,7.04-6.87,13.1-6.74,24.47" class="st4"></path>
		<path d="M1814.18,1167.18c6.17,0.39,13.87,7.92,18.54,11.88c4.97,4.2,9.7,8.74,13.57,13.81
			c2.35,3.08,7.88,11.48,6.7,15.5c-1.07,3.75-10.96,5.31-14.84,5.82c-5.95,0.77-12.91,0.28-18.78-2.08
			C1798.02,1203.56,1803.95,1183.26,1814.18,1167.18z" class="st2"></path>
		<g>
			<path d="M1848.29,1208.63c-16.14,4.3-43.89-7.66-40.36-27.77c2.53-14.37,19.68-27.51,31.75-40.36
				c-15.59,12.63-31.11,23.85-35.82,45.03c-7.28,32.82,30.3,40.96,51.66,31.41c26.98-12.03,55.37-49.07,61.25-73.27
				C1884.19,1188.81,1865.65,1204.01,1848.29,1208.63z" class="st2"></path>
		</g>
		<path d="M1870.55,1124.79c2.03,10.49,7.45,21.26,13.23,30.9" class="st12"></path>
		<path d="M1861.41,1132.71c9.98,4.3,20.94,12.91,31.41,14.17" class="st12"></path>
		<path d="M1855.78,1138.81c4.84,9.89,13.85,18.33,18.56,28.09" class="st12"></path>
		<path d="M1849.81,1144.3c9.46,4.8,19.38,9.93,28.8,15.05" class="st12"></path>
		<path d="M1845.01,1149.52c5.97,9.72,12.35,19.23,18.2,28.52" class="st12"></path>
		<path d="M1840.24,1153.67c8.41,5.91,21.99,15.59,30.98,17.62" class="st12"></path>
		<path d="M1836.23,1159.18c5.74,8.78,10.64,18.76,17.75,26.68" class="st12"></path>
		<path d="M1830.2,1164.72c8.8,4.84,19.38,12.05,28.9,15.57" class="st12"></path>
	</g>
</g>
<g>
	<path d="M1921.13,1151.06c1.65-6.66,11.86-10.6,15.2-16.68c6.79-12.35-11.33-34.98-15.95-47.81
		c0,0,37.28-0.77,46.14-0.94c-2.21,12.4,2.4,52.41,3.06,58.13c0.6,5.22,0.43,11.41-0.13,16.57c-1.24,11.37-15.74,18.56-25.37,16.42
		C1936.65,1175.1,1918.08,1163.22,1921.13,1151.06z" class="st2"></path>
	<g>
		<path d="M1864.56,1215.7c6.85-9.44,15.61-15.76,23.57-23.81c8.07-8.14,15.24-15.82,22.52-24.81
			c6.66-8.24,12.03-19.14,23.32-12.48c3.83,2.25,12.97,8.74,15.46,12.5c4.97,7.56-8.56,21.22-11.84,25.76
			c-7.9,10.92-17.09,21.05-23.38,33.04c-3.19,6.04-3.47,15.05-9.25,19.08c-9.81,6.83-20.85,0.69-30.27-4.75
			C1864.22,1234.2,1861.75,1225.35,1864.56,1215.7z" class="st4"></path>
		<path d="M1870.15,1210.41c12.91,1.07,12.67,2.18,18.99-6.57c8.07-11.2,15.09-20.88,25.05-33.04
			c7.45-9.12,15.09-30.19,15.09-30.19c-24.62,28.43-65.58,52.82-72.71,92.9c-3.75,21.13,27.77,27.41,49.22,16.76
			c30.04-14.88,45.13-38.09,65.24-85.75c1.73-5.87-0.28-12.89-0.28-12.89c-13.1,23.57-25.09,22.2-30.1,25.48
			c-6.1,4-10.32,12.76-14.56,18.61c-5.27,7.26-11.09,13.66-16.61,20.55c-6.42,8.01-5.4,14.13-3.9,25.69" class="st4"></path>
		<path d="M1864.43,1211.27c6.32-0.36,15.05,6.38,20.28,9.85c5.55,3.68,10.92,7.71,15.44,12.4
			c2.76,2.87,9.38,10.71,8.67,14.94c-0.64,3.94-10.49,6.72-14.37,7.69c-5.95,1.5-13.1,1.84-19.33,0.15
			C1852.36,1250.19,1855.95,1228.84,1864.43,1211.27z" class="st2"></path>
		<g>
			<path d="M1904.06,1249.29c-15.89,6.32-45.52-2.53-44.34-23.36c0.84-14.92,16.68-30.32,27.41-44.83
				c-14.3,14.71-28.75,27.98-30.98,50.06c-3.45,34.21,35.71,37.98,56.29,25.71c25.97-15.48,50.38-56.52,53.42-81.83
				C1938.17,1224.82,1921.15,1242.5,1904.06,1249.29z" class="st2"></path>
		</g>
		<path d="M1916.61,1161.42c3.34,10.43,10.13,20.7,17.17,29.8" class="st12"></path>
		<path d="M1908.28,1170.57c10.66,3.19,22.84,10.6,33.64,10.62" class="st12"></path>
		<path d="M1903.29,1177.44c6.1,9.48,16.29,16.96,22.25,26.31" class="st12"></path>
		<path d="M1897.87,1183.71c10.19,3.73,20.9,7.75,31.07,11.82" class="st12"></path>
		<path d="M1893.61,1189.6c7.24,9.16,14.86,18.05,21.92,26.78" class="st12"></path>
		<path d="M1889.27,1194.42c9.27,4.99,24.21,13.19,33.59,14.2" class="st12"></path>
		<path d="M1885.86,1200.48c6.87,8.24,13.08,17.77,21.24,24.99" class="st12"></path>
		<path d="M1880.4,1206.83c9.53,3.85,21.15,9.91,31.26,12.35" class="st12"></path>
	</g>
</g>
<path d="M2037.43,803.59c-7.41,23.72-17.75,42.01-17.19,66.74c0.94,42.11,10.43,74.76,26.03,112.81
	c10.34,25.2,54.72,142.89,54.72,142.89c-21.37,5.29-54.81,21-76.8,19.78c-56.82-3.15-94.36-50.04-149.29-64.17
	c-16.94-4.35-44.3-27.85-44.3-27.85s-46.14-70.44-60.78-157.62c-12.33-73.5-9.55-128.2-21.39-155.14
	c5.35-28.78,30.27-58.66,45.09-83.14c14.11-23.32,27.23-48.17,45.3-68.68c4.6-5.22,16.51-17.32,23.79-23.34
	c-25.67,57.38,49.35,84.42,92.17,73.89c21.43-5.27,34.92-16.23,52.93-29.76c9.23,45.37,23.74,87.08,26.98,132.94
	C2036.23,764.16,2043.85,783.02,2037.43,803.59z" class="st4"></path>
<pattern patternTransform="matrix(0.0392 0.0113 0.0113 -0.0392 -16335.8496 -8031.7661)" xlink:href="#SVGID_3_" id="SVGID_5_">
</pattern>
<path d="M2037.43,803.59c-7.41,23.72-17.75,42.01-17.19,66.74c0.94,42.11,10.43,74.76,26.03,112.81
	c10.34,25.2,54.72,142.89,54.72,142.89c-21.37,5.29-54.81,21-76.8,19.78c-56.82-3.15-94.36-50.04-149.29-64.17
	c-16.94-4.35-44.3-27.85-44.3-27.85s-46.14-70.44-60.78-157.62c-12.33-73.5-9.55-128.2-21.39-155.14
	c5.35-28.78,30.27-58.66,45.09-83.14c14.11-23.32,27.23-48.17,45.3-68.68c4.6-5.22,16.51-17.32,23.79-23.34
	c-25.67,57.38,49.35,84.42,92.17,73.89c21.43-5.27,34.92-16.23,52.93-29.76c9.23,45.37,23.74,87.08,26.98,132.94
	C2036.23,764.16,2043.85,783.02,2037.43,803.59z" class="st13"></path>
<path d="M1815.1,909.17c-11.35,4.26-42.35-10.36-64.55-15.05c-1.46-20.45-5.55-23.87-8.26-44.85
	c-2.89-22.2-8.61-92.43-13.87-113.56c-11.95-47.85-28.9-64.87-60.42-101.01c-2.48-18.76,4.26-54.17,14.79-63.4
	c52.01-19.85,67.7-31.07,101.12-35.2c30.64-3.79,53.16,6.83,81.85,16.21c1.11,53.89-4.54,126.24-13.45,183.51
	C1848.48,760.24,1833,845.99,1815.1,909.17z" class="st2"></path>
<path d="M1843.9,548.38c1.11,53.89-6.1,127.76-13.45,183.51c-3.23,24.51-19.27,110.18-37.19,173.36" class="st7"></path>
<path d="M1995.93,590.43c-30.23,50.42-68.53,159.68-70.2,179.18c-5.25,61.08,4.75,146.13,6.17,178.58
	c31.17,7.79,74.02,20.88,104.05,2.14c-2.29-12.65-2.61-18.88-2.61-18.88c0.02-6.4,3.7-18.03,0.39-31.15
	c-1.78-7.07-3.06-36.57-3.68-43.7c-0.62-6.92,5.57-17.15,9.42-24.39c11.82-22.27,26.23-49.09,41.41-69.11
	c3.08-36.46-3.38-64.21-19.12-97.03C2049.31,640.23,2024.79,596.51,1995.93,590.43z" class="st2"></path>
<path d="M2015.5,600.28c-29.63,52.54-65.26,154.65-66.86,173.44c-5.25,61.08,4.75,146.13,6.17,178.58" class="st7"></path>
<line y2="935.01" x2="1965.25" y1="954.36" x1="1964.84" class="st7"></line>
<line y2="934.73" x2="1979.45" y1="957.51" x1="1977.76" class="st7"></line>
<line y2="936.74" x2="1995.14" y1="957.19" x1="1993.81" class="st7"></line>
<path d="M2010.94,956.83c0.15-7.24-0.73-14.41-1.52-21.58" class="st7"></path>
<path d="M2025.89,954.26c-1.22-6.79-3.36-13.49-3.64-20.4" class="st7"></path>
<path d="M1782.84,902.34c1.22-6.47,2.7-12.89,3.9-19.35" class="st7"></path>
<path d="M1769.86,896.17c0.62-6.25,1.82-12.03,1.78-18.24" class="st7"></path>
<path d="M1759.11,894.24c-0.13-6.42-0.26-12.85-0.39-19.27" class="st7"></path>
<path d="M1931.32,416.9c-11.9,4.67-22.8,11.82-31.49,21.43c-16.74,18.46-24.51,42.97-31.77,66.61
	c-7.26,23.57-14.41,49.56-4.65,71.64c8.11,18.33,26.78,30.06,46.35,34.9c62.22,15.39,123.15-23.08,142.49-82.6
	c12.67-39.05-6.51-84.51-40.51-105.77C1988.33,408.51,1957.42,406.69,1931.32,416.9z" class="st2"></path>
<path d="M1913.52,492.63c-6.89-15.54-26.42-10-26.42-10" class="st7"></path>
<path d="M1946.3,507.57c24.69-6.89,40.12,20.17,40.12,20.17" class="st7"></path>
<path d="M1900.81,509.8c-2.14,4.13-5.97,6.38-8.54,5.05c-2.57-1.33-2.93-5.76-0.79-9.89c2.14-4.13,5.97-6.38,8.54-5.05
	C1902.58,501.24,1902.93,505.67,1900.81,509.8z"></path>
<path d="M1957.87,535.66c-2.14,4.13-5.97,6.38-8.54,5.05c-2.57-1.33-2.93-5.76-0.79-9.89c2.14-4.13,5.97-6.38,8.54-5.05
	C1959.64,527.1,1960.01,531.53,1957.87,535.66z"></path>
<path d="M1914.94,498.75c0.54,9.74-6.85,20.28-11.05,28.65c-2.57,5.1-7.24,10.83-2.63,16.21" class="st7"></path>
<ellipse ry="18.43" rx="18.43" cy="568.87" cx="1957.33" class="st9"></ellipse>
<path d="M1858.93,537.01c5.05,5.35,13.38,6.29,19.48,1.82c6.59-4.84,8.03-14.11,3.19-20.7
	c-3.58-4.86-9.53-6.89-15.07-5.7C1863.51,520.51,1860.79,528.73,1858.93,537.01z" class="st9"></path>
<path d="M1895.86,586.6c12.8,1.54,23.49-12.1,30-20.85c-15.07-2.42-31.92-8.31-44.23-17.28c0,0-2.33,14.88-0.9,22.63
	C1882.12,578.59,1887.49,585.57,1895.86,586.6z" class="st2"></path>
<path d="M1931.32,416.9c-11.9,4.67-22.8,11.82-31.49,21.43c-16.74,18.46-24.51,42.97-31.77,66.61
	c-7.26,23.57-14.41,49.56-4.65,71.64c8.11,18.33,26.78,30.06,46.35,34.9c62.22,15.39,123.15-23.08,142.49-82.6
	c12.67-39.05-6.51-84.51-40.51-105.77C1988.33,408.51,1957.42,406.69,1931.32,416.9z" class="st7"></path>
<path d="M2012.14,556.6c-3.08-6.7-6.77-23.79-11.84-29.16c-8.67-9.18-4.9-16.25-4.24-27.66
	c-4.11,3.13-8.39,6.66-13.17,8.18c3.66-5.59,6.62-15.33,5.37-21.82c-3.02,2.8-8.16,10.6-11.8,11.95c-5.52,2.06-8.44-1.61-14.07-3.94
	c4.05-6.27,7.34-18.43,7.45-25.5c-7.22,9.81-13.98,21.82-26.12,20.34c-11.28-1.37-21.71-8.61-31.86-12.61
	c1.37-5.97,3.45-11.93,4.73-17.92c-5.07,3.6-12.03,11.11-14.94,14.22c-0.58-6.85,4.26-18.33,8.05-24.02
	c-6.44,5.16-14.15,14.24-16.61,22.12c-5.1-0.64-10.47-2.4-14.9-5.12c5.57-25.11,17.73-45,41.06-56.01
	c37.7-17.79,101.72-14.39,123.28,28.18c19.31,4.69,23.94,40.06,24.94,55.05c2.12,31.37-20.04,62.39-43.36,80.48" class="st6"></path>
<g>
	<path d="M2001.61,591.87c15.63,2.23,35.99-12.55,36.03-29.57c0.04-15.24-19.4-20.81-29.01-10.02" class="st2"></path>
	<path d="M2007.32,570.76c1.26-9.18,14.99-8.97,19.44-2.4" class="st7"></path>
	<path d="M2007.62,569.66c3.98-4.13,9.44,2.48,9.72,6.47" class="st7"></path>
</g>
<path d="M1743.42,548.34c-8.91,51.75-11.65,105.98-14.54,159.76" class="st5"></path>
<path d="M1743.87,569.06c31.04-13.34,68.19-14.52,98.51,0.13" class="st5"></path>
<path d="M1737.55,783.34c14.99,4.37,31.19,1.58,46.18,6.55c-1.43,13.87-1.13,35.35-9.01,47.3
	c-5.52,8.37-21.58,11.15-31.62,7.07" class="st7"></path>
<path d="M2014.13,851.19c-10-1.54-20.06-4.26-30.08-5.1c-4.65,14.73-10.56,40.57-0.32,54.28
	c10,13.38,39.27,20.19,49.97,4.99" class="st7"></path>
<g>
	<path d="M2032.09,874.46c0.86,10.51-10.92,20.25-17.68,26.93c-2.25,2.23-8.5,10.49-11.37,8.56
		c-3.83-2.55,0.17-11.15,1.99-13.77C2011.03,887.5,2021.88,882.64,2032.09,874.46z" class="st2"></path>
	<path d="M2039.22,863.07c-4.73,15.27-20.47,26.81-33.4,34.51c-5.7,3.38-13.7,9.25-20.38,10.04
		c-9.74,1.13,0.73-13.27,4.03-15.59C2004.5,881.53,2022.2,877.05,2039.22,863.07z" class="st2"></path>
	<path d="M2034.43,853.84c2.51-1.76,7.43-3.66,9.87-1.05c3.13,3.34-0.43,7.43-2.61,9.81
		c-6.4,6.94-14.43,14.15-22.74,18.65c-5.74,3.1-11.93,6.12-18.03,8.2c-4.65,1.56-9.57,2.21-14.3,3.88
		c-2.44,0.86-10.17,4.9-12.35,2.74c-2.59-2.59,1.8-8.54,3.51-10.36c4.41-4.73,11.03-7.11,16.83-9.68c6.23-2.76,11.78-6.92,17.9-9.96
		c4.05-2.01,7.66-4.8,11.73-6.72C2027.02,858.02,2030.21,855.19,2034.43,853.84z" class="st2"></path>
	<path d="M2024.04,841.66c-6.29,5.18-9.83,13.3-17.39,17.24c-5.59,2.89-24.66,4.58-24.45,14.79
		c0.09,4.03,21.22-0.17,26.18-1.33c8.33-1.93,17.04-8.24,23.27-14.28c3.19-3.08,6.85-7.45,7.6-12.1
		C2040.44,838.75,2030.27,834.27,2024.04,841.66z" class="st2"></path>
</g>
<path d="M1959.88,433.28c-10.9,7.49-18.13,16.64-22.95,29.03" class="st7"></path>
<path d="M1939.26,437.28c-8.09,10.36-13.06,19.55-15.76,32.44" class="st7"></path>
<path d="M652.18,1330.44c14.07,13.62,15.37,20.9,25.99,29.97c20.38,17.43,35.39,29.03,58.73,33.57
	c25.39,4.95,64.21,7.13,41.39-28.97c-23.59-37.3-41.36-36.76-77.14-58.3c-8.8-5.31-23.25-10.19-30.6-17.04
	c-5.44-5.07-13.17-14.56-27.96,4.52C634.34,1304.81,641.11,1319.71,652.18,1330.44z" class="st4"></path>
<path d="M761.54,1345.21c-6.21,1.09-11.78,9.55-15.33,14.07c-3.79,4.8-7.22,9.87-9.59,15.42
	c-1.43,3.36-4.47,12.4-2.01,16.31c2.29,3.64,12.93,4.05,17.06,4.11c6.36,0.09,13.36-1.22,18.65-4.24
	C789.59,1379.79,777.11,1360.13,761.54,1345.21z" class="st14"></path>
<g>
	<g>
		<path d="M644.51,1291.41c-6.7,8.35-6.53,17.92,2.31,28.71c8.2,10,17.51,17.41,27.92,24.69
			c7.15,4.99,13.53,11.43,20.36,16.81c7.02,5.52,13.45,10.58,21.11,14.41c6.57,3.28,14.56,7.66,21.92,8.52
			c18.16,2.12,52.99,3.38,37.96-21.45c-4.99-8.24-13.57-20.83-23.53-27.47c8.59,6.53,16.72,15.22,25.69,29.4
			c22.82,36.1-15.99,33.89-41.39,28.97c-23.36-4.54-38.35-16.14-58.73-33.57c-10.64-9.1-22.99-17.41-33.34-34.68
			C633.42,1306.61,642.31,1292.24,644.51,1291.41z" class="st2"></path>
	</g>
</g>
<path d="M688.88,1327.18c9.66,1.26,19.7,12.05,27.56,16.85c7.34,4.47,23.25,14.09,21.97,24.75" class="st7"></path>
<path d="M732.77,1320.61c-4.35,10.45-9.18,20.66-13.49,30.66" class="st12"></path>
<path d="M738.63,1324.78c-7.69,6.55-20.06,17.28-29.14,19.78" class="st12"></path>
<path d="M743.94,1330.37c-4.28,9.44-7.47,20.1-13.38,28.73" class="st12"></path>
<path d="M751.42,1335.94c-8.31,5.44-18.03,13.45-27.38,17.54" class="st12"></path>
<path d="M717.59,1312.75c-4.28,9.44-5.42,18.22-11.33,26.85" class="st12"></path>
<path d="M696.41,1280.61c-6.94,2.87-13.98,5.27-21.05,7.81c-4.22,1.52-10.81,2.18-14.49,5.05
	c-9.42,7.32-1.67,21.3,4.6,27.62c5.8,5.84,14.58,11.11,14.58,11.11c7.39-2.4,11.22-1.95,15.01-1.43c-1.03-6.38,1.18-9.08,5.76-14.07
	c4.15-4.52,10.34-5.07,14.73-9.06C714.53,1299.65,703.89,1284.21,696.41,1280.61z" class="st2"></path>
<path d="M722.45,1318.15c-7.99,5.25-15.37,11.13-24.34,15.07" class="st12"></path>
<path d="M821.96,1201.74c17.73,42.37,31.62,70.57,34.36,74.68c15.16,22.8,30.06,44.21,29.97,72.67
	c-0.02,6.89,0.13,13.51-0.19,20.21c-0.45,9.91-2.95,17.43-7.96,26.66l-13.68,0.51c-17.98-15.46-24.94-24.84-31.56-48.22
	c-12.25-43.36-6.85-70.63-40.59-134.09" class="st2"></path>
<path d="M850.82,1391.43c-4.6-11.01-5.91-21.86-8.93-32.99c-3.06-11.3-6.1-21.58-10.17-32.71
	c-3.73-10.19-10.13-20.79,0-26.4c3.43-1.91,12.5-5.82,16.57-5.76c8.14,0.13,13.25,19.08,15.48,24.39
	c5.35,12.72,9.51,26.06,16.36,38.07c3.47,6.06,10.51,11.39,11.26,18.46c1.26,12.01-8.35,17.68-16.7,22.44
	C865.43,1402.18,857.31,1399.23,850.82,1391.43z" class="st4"></path>
<path d="M848.98,1383.81c6.36-10.11,7.15-9.29,2.85-19.48c-5.48-13.02-10.19-24.32-15.65-39.46
	c-4.09-11.33-17.62-29.57-17.62-29.57c12.16,36.48,14.3,84.12,43.06,112.83c27.83,27.79,33.7-7.56,34.36-31.37
	c0.94-33.34-10.17-56.57-39.59-100.18c0.13,9.83-4.62,20.43-3.88,29.91c0.6,7.32,5.78,15.78,8.63,22.59
	c3.53,8.48,6.17,16.91,9.29,25.39c3.64,9.85,8.97,12.46,18.82,17.75" class="st4"></path>
<path d="M847.18,1389.08c2.23-5.35,10.96-8.65,15.72-10.94c5.07-2.44,10.32-4.5,15.78-5.52
	c3.32-0.62,12.05-1.52,15.07,1.48c2.8,2.78,1.03,12.44,0.26,16.16c-1.2,5.74-3.79,11.75-7.58,15.91
	C872.6,1421.26,857.46,1406.08,847.18,1389.08z" class="st2"></path>
<g>
	<path d="M890.52,1376.94c-1.76,16.76-8.54,42.69-27.83,24.19c-10.62-10.17-22.82-30.85-29.82-47.96
		c5.63,20.19,13.23,39.46,28.78,54.96c27.83,27.79,33.7-7.56,34.36-31.37c0.47-16.51-2.03-30.53-8.24-45.78
		C889.98,1343.56,892.38,1358.91,890.52,1376.94z" class="st2"></path>
</g>
<path d="M829.76,1317.59c9.74,3.13,20.83,3.3,31.09,2.59" class="st12"></path>
<path d="M833.48,1329.67c7.09-7.04,18.2-12.97,22.82-21.9" class="st12"></path>
<path d="M836.84,1337.69c10.17,0.28,20.47-3.94,30.47-3.6" class="st12"></path>
<path d="M839.54,1345.72c7.32-6.36,15.09-12.95,22.67-19.1" class="st12"></path>
<path d="M842.41,1352.6c10.38-0.83,20.73-2.14,30.7-3.06" class="st12"></path>
<path d="M844.4,1358.91c7.92-4.86,20.85-12.65,25.65-19.87" class="st12"></path>
<path d="M847.78,1365.16c9.51-1.05,19.74-0.81,28.99-3.51" class="st12"></path>
<path d="M850.52,1373.3c7.15-5.72,16.94-11.95,23.19-18.97" class="st12"></path>
<path d="M553.63,1163.39c0.75,27.83,25.65,62.84,46.59,79.05c23.47,18.18,78.02,53.2,82.07,54.94l0.36,1.01
	c5.1,11.35,28.37,22.35,28.37,22.35c13.87-5.8,41.77-2.55,55.65-7.71c61.51-22.87-0.41-78.25-17.28-120.48
	c0,0,48.45,64.08,61.04,99.81c22.03,2.16,37.92-9.33,46.65-18.35c-6.32-19.78-10.13-45.58-13.83-66.26
	c-6.17-34.49-50.76-188.13-82.39-213.91" class="st6"></path>
<path d="M578.4,1160.55c1.33,29.89,27.79,67.98,49.76,85.81c24.64,20,81.72,58.69,85.94,60.63" class="st5"></path>
<path d="M587.2,1160.37c1.33,29.89,27.79,67.98,49.76,85.81c24.64,20,81.72,58.69,85.94,60.63" class="st5"></path>
<path d="M807.85,1280.66c22.03,2.16,37.92-9.33,46.65-18.35" class="st5"></path>
<path d="M805.01,1274.75c22.29,2.06,38.43-9.57,47.34-18.63" class="st5"></path>
<path d="M850.95,1280.57c-6.32-19.78-10.13-45.58-13.83-66.26c-6.17-34.49-50.76-188.13-82.39-213.91" class="st5"></path>
<path d="M682.28,1297.4c12.14,5.18,36.42,11.99,44.55,10.23" class="st7"></path>
<path d="M745.68,1182.73c-15.76-22.52-35.01-46.87-44.32-72.97" class="st5"></path>
<path d="M732.45,1163.71c-26.23,11.82-34.26-16.14-44.62-35.5" class="st5"></path>
<path d="M541.94,1167.63c3,5.76,4.15,15.59,9.93,18.86c7.66,4.32,36.46-4.56,44.96-8.01
	c33.38-13.57,70.29-31.07,97.07-49.12c28.39-19.12,57.17-40.04,79.82-65.39c15.16-16.98,22.1-29.42,22.1-29.42
	s-20.51-38.56-28.07-46.44" class="st2"></path>
<g>
	<path d="M122.08,521.66c-0.94-4.07-8.24-4.71-11.07-2.61c-3.13,2.31-7.47,7.58-9.7,10.71
		c-7.92,11.09-12.48,18.39-22.25,30.7c-3.25,4.09-7.69,10.17-6.53,15.72c0.83,3.96,4.65,6.44,7.58,8.89
		c3.75,3.13,7.96,5.33,11.86,8.2c11.2,8.26,22.37,18.35,31.84,28.52c4.71,5.07,9.16,11.63,13.23,17.3
		c4.62,6.49,4.73,12.23,7.84,19.18c3.02,6.79,9.74,12.53,14.05,18.63c5.89,8.31,10.38,17.43,14.97,26.66
		c14.9,30.15,30.17,61.21,47.19,90.22l56.1-39.63c-17.68-15.8-57.36-74.98-62.95-83.07c-13.12-18.99-22.48-38.3-28.86-51.53
		c-6.96-14.43-2.65-30.51-8.39-44.15c-5.4-12.85-11.24-23.4-17.81-35.61c-2.98-5.55-5.05-12.23-8.89-16.72
		c-4.58-5.37-11.24-3.25-18.22-3.32c-7.75-0.09-16.12,2.4-6.68,9.53c6.57,4.97,17.28,5.74,25.09,6.81" class="st2"></path>
	<path d="M173.21,613.6c-4.84-18.11-43.38-26.06-40.38-44.11" class="st7"></path>
	<path d="M142.34,554.16c-3.13,3.21-8.26,10.53-9.42,15.12c-0.86,3.36,0.15,6.21,2.27,8.65
		c3.58,4.07,5.85,1.31,8.74-2.51c3.96-5.18,8.61-13,10.23-19.42c1.76-6.96-4.6-13.15-9.23-18.07c-3.17-3.36-4.77-4.22-8.8-1.24
		c-8.31,6.12-15.52,14.3-23.77,20.68" class="st7"></path>
	<path d="M126.94,530.53c-5.52-2.53-9.89,2.65-13.34,6.23c-7.88,8.18-13.3,15.42-20.77,22.31" class="st7"></path>
	<path d="M81,567.8c-2.53,1.58-1.88,5.97,0.09,7.71" class="st7"></path>
	<path d="M98.55,568.85c-0.36,3.34-0.88,5.74,2.48,7.24" class="st7"></path>
	<path d="M117.44,571.03c-1.82,1.24,0.11,5.91,1.63,7.13" class="st7"></path>
</g>
<path d="M556.03,1171.7c42.59-11.65,126.75-55.92,158.89-84.74c30.83-27.62,68.86-48.64,68.08-86.33
	c-0.51-25.03-13.64-52.35-16.53-76.84c-4.88-41.28-2.74-83.52,0.28-125.16c1.99-27.3,2.53-57.62-1.61-84.76
	c-3.68-24.17-11.58-65.67-27.47-84.61c-11.65,10.02-25.18,18.82-34.81,30.7c-6.92,8.52-13.19,16.76-19.57,25.86
	c-11.93,17.02-22.16,43.38-44.98,47.96L456.77,794.3c-7.81,6.06-16.38,12.2-26.03,13.79c-9.81,1.61-18.56-3.4-28-2.4
	c-9.72,1.05-17.13,8.46-26.63,10.62c-12.25,2.78-19.91-3.81-29.52-10.34c-7.07-4.8-14.56-9.08-21.39-14.09
	c-21.75-16.01-58.45-74.36-79.35-96.07c-10.62-11.05-9.29-36.98-29.08-33.38c0,0-27.41,28.13-57.34,31
	c-7.54,11.58-3.58,15.48,5.31,30.1c20.64,33.96,43.53,84.42,68.23,115.66c23.74,30.02,54.32,61.73,83.11,86.82
	c31.73,27.64,84.16,58.79,109.19,78.7c26.87,33.91,68.28,127.03,99.73,156.92C533.27,1169.41,547.91,1173.93,556.03,1171.7z" class="st2"></path>
<path d="M2141.44,1348.57c-2.8,8.01-5.4,16.06-7.75,24.22c-1.41,4.9-2.12,9.42-2.25,14.39
	c-0.15,5.74-0.19,11.56,0.71,17.34c0.83,5.22,1.88,11.6,6.49,14.73c6.25,4.22,13.06,4.5,20.51,1.33c2.76-1.18,10.28-7.09,12.95-9.96
	c3.77-4.05,7.22-8.74,10.02-13.4c5.65-9.44,10.47-19.2,12.23-30.02c2.61-16.19-1.07-32.63-0.26-49.01" class="st2"></path>
<path d="M2157.75,1297.96c-1.82,6.42-3.75,13.1-5.59,19.53c-2.83,9.83-7.17,21.86-10.11,30.83
	c-2.42,7.41-4.67,14.88-6.68,22.44c-1.22,4.54-1.82,8.74-1.88,13.36c-0.09,5.33-0.06,10.75,0.79,16.1
	c0.77,4.86,1.78,10.81,5.91,13.75c5.59,3.98,11.67,4.3,18.26,1.41c2.44-1.07,9.08-6.49,11.45-9.14c3.32-3.73,6.34-8.07,8.8-12.38
	c4.95-8.71,9.4-17.81,10.88-27.83c1.28-8.78,2.87-18.8,2.63-27.64c-0.36-12.76,0.6-25.67,4.13-37.94c0.79-2.78,1.46-6.79,1.69-9.66
	c0.36-4.15-1.31-8.31-4.35-11.15c-3.04-2.85-7.26-4.3-11.43-4.43c-6.7-0.19-13.4,3.02-17.47,8.37
	C2161.88,1287.38,2159.08,1293.33,2157.75,1297.96z" class="st2"></path>
<path d="M2185.46,1306.07c-0.24,5.91-0.49,11.8-0.73,17.71c-0.26,6.21-0.54,12.48-2.31,18.43
	c-0.19,0.62-0.43,1.31-0.94,1.69c-0.51,0.39-1.18,0.43-1.82,0.45c-8.39,0.34-16.85-0.98-24.75-3.9c-1.99-0.73-4.2-1.84-4.67-3.92
	c-0.19-0.83-0.06-1.73,0.09-2.57c0.77-4.28,2.08-8.44,3.36-12.59c3.21-10.32,7.15-20.34,9.85-30.81c6.53-0.9,13.32-0.19,19.16,2.8
	c1.01,0.51,2.06,1.16,2.57,2.16C2185.29,1295.56,2185.61,1302.37,2185.46,1306.07z" class="st2"></path>
<path d="M2189.33,1290.12c-0.32,15.95-2.42,31.73-1.95,47.68c0.21,7.41-5.37,34.38-12.87,47.98
	c-1.99,3.62-3.94,8.76-6.68,11.86c-1.95,2.23-7.47,6.74-9.51,7.64c-5.48,2.42-10.51,2.14-15.18-1.2c-3.45-2.46-4.28-7.45-4.92-11.52
	c-0.73-4.5-0.73-9.01-0.69-13.49c0.04-3.88,0.54-7.39,1.54-11.18c1.67-6.32,3.73-12.4,5.29-18.73c1.61-6.53,4.47-13.94,5.67-20
	c2.4-12.16,8.11-23.36,9.55-35.67" class="st5"></path>
<path d="M2149.27,1336.39c1.48-4.67,3.75-5.18,8.65-4.35c4.9,0.84,11.78,2.65,18.93,4.5c5.93,1.54,6.72,5.55,5.99,11.24
	c-0.39,3.13-0.32,4.77-3.83,4.69c-3.85-0.09-30.83-6.7-31.52-7.64C2146.81,1343.84,2148.35,1338.98,2149.27,1336.39z" class="st2"></path>
<path d="M2144.93,1336.6c3.4,4.13,20.58,9.1,31.09,11.09c3.3,0.62,12.14,1.63,12.14,1.63
	c-0.09,2.53-1.46,11.33-2.25,12.65c-11.67,0-24.34-2.87-36.42-7.19c-4.69-1.69-8.65-4.45-8.65-4.45L2144.93,1336.6z" class="st2"></path>
<path d="M2146.75,1416.76c-0.84-3.49-0.69-7.22,0.41-10.66c2.98-9.38,10-37.92,13.36-47.53" class="st5"></path>
<path d="M2045.24,1295.94c-4.47,7.19-8.78,14.49-12.87,21.92c-2.46,4.47-4.13,8.74-5.35,13.55
	c-1.39,5.57-2.72,11.24-3.1,17.06c-0.34,5.27-0.71,11.73,3.1,15.8c5.18,5.48,11.75,7.26,19.72,5.78c2.95-0.56,11.58-4.65,14.84-6.87
	c4.56-3.13,8.97-6.96,12.7-10.9c7.58-7.96,14.43-16.44,18.5-26.61c6.1-15.22,6.1-32.07,10.49-47.87" class="st2"></path>
<path d="M2072.24,1250.13c-3.19,5.87-6.53,11.97-9.72,17.83c-4.9,8.97-11.8,19.76-16.61,27.88
	c-3.98,6.7-7.81,13.51-11.43,20.43c-2.18,4.15-3.68,8.14-4.75,12.63c-1.24,5.18-2.42,10.47-2.76,15.89
	c-0.3,4.9-0.64,10.92,2.76,14.71c4.58,5.1,10.43,6.74,17.51,5.37c2.61-0.51,10.28-4.35,13.17-6.4c4.05-2.91,7.96-6.47,11.28-10.15
	c6.72-7.43,13.08-15.33,16.7-24.79c3.17-8.29,6.92-17.71,8.63-26.38c2.44-12.53,6.21-24.92,12.33-36.12
	c1.39-2.53,2.89-6.29,3.77-9.06c1.26-3.98,0.54-8.37-1.8-11.84c-2.33-3.47-6.14-5.8-10.19-6.83c-6.51-1.65-13.75,0.02-18.88,4.35
	C2078.58,1240.71,2074.55,1245.91,2072.24,1250.13z" class="st2"></path>
<path d="M2097.5,1264.11c-1.54,5.7-3.06,11.41-4.6,17.11c-1.61,5.99-3.25,12.05-6.29,17.47
	c-0.32,0.58-0.71,1.18-1.31,1.43c-0.58,0.26-1.26,0.17-1.88,0.04c-8.26-1.5-16.23-4.67-23.29-9.23c-1.78-1.16-3.68-2.72-3.7-4.86
	c0-0.86,0.32-1.69,0.66-2.48c1.69-4,3.88-7.77,6.04-11.54c5.4-9.38,11.43-18.26,16.36-27.9c6.57,0.54,13.02,2.72,18.09,6.94
	c0.88,0.73,1.76,1.56,2.03,2.68C2099.62,1253.81,2098.45,1260.53,2097.5,1264.11z" class="st2"></path>
<path d="M2104.76,1249.38c-3.81,15.5-9.31,30.42-12.35,46.1c-1.41,7.26-12.76,32.39-23.06,44
	c-2.74,3.1-5.76,7.69-9.12,10.13c-2.4,1.73-8.76,4.95-10.94,5.37c-5.87,1.16-10.73-0.21-14.54-4.5c-2.83-3.17-2.53-8.2-2.29-12.31
	c0.28-4.54,1.26-8.97,2.29-13.32c0.9-3.77,2.14-7.09,3.96-10.58c3.02-5.8,6.36-11.28,9.27-17.11c3-6.02,7.41-12.63,9.91-18.28
	c5.01-11.35,13.04-21,17.13-32.72" class="st5"></path>
<path d="M2055.54,1285.75c2.46-4.24,4.8-4.24,9.4-2.36c4.6,1.88,10.92,5.16,17.49,8.54c5.44,2.78,5.33,6.89,3.38,12.29
	c-1.07,2.95-1.37,4.58-4.77,3.73c-3.73-0.94-28.63-13.3-29.08-14.37C2051.51,1292.5,2054.08,1288.07,2055.54,1285.75z" class="st2"></path>
<path d="M2051.26,1285c2.42,4.77,18.07,13.38,27.9,17.62c3.08,1.33,11.48,4.24,11.48,4.24
	c-0.64,2.44-3.9,10.73-4.97,11.86c-11.39-2.55-23.12-8.11-33.96-15.01c-4.22-2.68-7.47-6.23-7.47-6.23L2051.26,1285z" class="st2"></path>
<path d="M2035.48,1363.62c-0.04-3.6-0.58-8.18,1.24-11.28c4.13-7.07,24.51-43.08,24.51-43.08" class="st5"></path>
<path d="M2057.57,1000.29c0,0-8.76,116.02-3.47,148.16c4.73,28.73,2.42,59.14,2.89,97.74
	c3.96,15.16,15.46,21.71,31.6,24.73c11.35,2.12,22.97-5.61,33.1-10.68c0,0,5.65-24.49,9.04-35.07
	c10.58-32.99,8.95-57.25,26.14-88.04c0,0,0.28,43.93-1.76,77.33c-2.53,41.36-9.87,80.85-9.33,89.24
	c8.97,9.72,21.54,16.53,34.56,16.91c9.33,0.28,19.91-0.3,24.49-8.59c7.66-13.85,12.78-29.78,19.63-43.96
	c2.83-5.87,6.68-9.48,10.32-14.24c3.96-5.14,2.42-10.6,4.32-16.57c9.57-29.97,38.65-83.89,43.21-116.07c0,0,1.71-8.86,2.31-13.9
	c1.48-12.27-202.78-121.91-208.86-107.18C2072.69,1007.59,2062.13,993.46,2057.57,1000.29z" class="st2"></path>
<path d="M2145.55,1292.5c8.97,9.72,23.87,19.5,36.87,19.89c9.33,0.28,22.07-0.45,26.66-8.71" class="st5"></path>
<path d="M2146.17,1287.68c8.97,9.72,23.87,19.5,36.87,19.89c9.33,0.28,22.07-0.45,26.66-8.71" class="st5"></path>
<path d="M2056.78,1236.68c3.96,15.16,15.46,21.71,31.6,24.73c11.35,2.12,22.97-5.61,33.1-10.68" class="st5"></path>
<path d="M2056.89,1231.73c3.96,15.16,15.46,21.71,31.6,24.73c11.35,2.12,27.15-8.16,37.3-13.23" class="st5"></path>
<path d="M2064.3,1000.16c0,0-8.76,116.02-3.47,148.16c4.73,28.73,1.01,70.46,1.48,109.06" class="st5"></path>
<path d="M2194.11,1318.19c7.66-13.85,15.33-35.76,22.18-49.93c2.83-5.87,6.68-9.48,10.32-14.24
	c3.96-5.14,2.42-10.6,4.32-16.57c9.57-29.97,41.06-95.7,45.65-127.88" class="st5"></path>
<path d="M2157.07,1131.34c0.69-11.84,6.92-51.41,9.14-62.69" class="st5"></path>
<path d="M2157.2,1125.43c-12.74-4.58-17.13-21.99-8.09-60.89" class="st5"></path>
<line y2="1140.48" x2="2198.62" y1="1137.98" x1="2166.32" class="st5"></line>
<line y2="1166.09" x2="2202.65" y1="1142.22" x1="2162.91" class="st5"></line>
<line y2="1128.84" x2="2113.41" y1="1134.94" x1="2148.27" class="st5"></line>
<path d="M2556.39,718.89c0,0-1.16-7.43,3.79-10.38c5.61-3.36,18.78,0.15,25.54,3.51c8.39,4.18,18.76,8.99,28.13,10.83
	c7.6,1.5,8.97,5.44,8.63,13.06c-0.3,7.09-2.31,14.37-3.58,21.52c-2.21,12.35-4.43,24.71-7.9,36.91c-2.25,7.96-2.7,16.42-3.53,24.71
	c-0.66,6.62,1.97,13.72,0.96,20.3c-1.03,6.79-6.08,12.12-8.52,18.39c-3.23,8.24-4.99,17.41-7.41,25.93
	c-10.08,35.28-16.44,67.16-25.54,102.73l-56.99-33.12c10.81-11.5,40.21-117.07,43.87-131.97c0.73-3,1.71-5.85,1.39-8.89
	c-0.43-4.18-2.72-7.6-4.77-11.05c-5.48-9.12-8.8-16.51-10.9-27.08c-2.08-10.34-3.88-20.55-7.17-30.62
	c-2.44-7.47-10.04-17.09-3.19-23.27c1.88-1.71,9.03-6.53,11.15-6.94c3.3-0.66,9.06,3.66,13.02,3.6c6.12-0.11,1.65,10.21,0.75,12.85
	c-2.06,5.95-7.15,13.27-14.47,7.62" class="st2"></path>
<path d="M2600.3,728.79c-8.18,0.71-20.88-3.25-28.88-3.92c-8.59-0.71-12.74-2.06-17.58,6.04" class="st7"></path>
<path d="M2550.65,737.65c-3.66,4.39-0.79,12.63,3.68,15.48" class="st7"></path>
<path d="M2600.88,738.72c-10.73,2.31-21.3-0.06-32.01,0.17c-4.54,0.09-8.65-0.77-10.62,3.45
	c-1.84,3.94-3.51,9.33-4.3,13.66c-1.31,7.26,2.23,12.01,9.46,14.56c5.1,1.8,15.52,1.13,15.52-5.37c-3.96-4.97-7.66-5.52-13.49-6.36
	c6.96,1.95,12.8-0.02,20.04-0.28c-3.75,1.39-4.71,5.48-6.25,8.63c-2.01,4.13-4.3,5.46-8.44,7.26c-3.21,1.41-6.44,3.1-9.23,5.22
	c-6.64,5.03-6,9.98-5.05,18.22" class="st7"></path>
<path d="M2600.75,752.68c3.68-0.51,5.7,4.58,7.32,7.17" class="st7"></path>
<path d="M2609.79,735.72c3.51,0.26,3.85,3.3,4.67,5.99" class="st7"></path>
<path d="M2344.83,831.81c-26.23-24.28-33.21-53.61-27.15-88.06c-26.53,22.31-64.08,16.96-96.2,7.86
	c-5.33,21.32-13.21,32.05-35.22,36.44c3.77,25.03,11.05,82.43,33.94,95.68c19.63,11.37,50.08-8.18,71.49-14.2
	C2312.29,863.76,2337.58,852.73,2344.83,831.81z" class="st2"></path>
<path d="M2608.61,861.79c-14.79,51.88-27.13,112.83-48.71,161.75c-8.44,19.1-22.93,31.75-45.39,32.61
	c-15.14,0.56-110.35-43.91-150.99-68.06c-41.92,46.89-46.2,90.97-78.92,119.26c-42.56,0.73-86.54-18.76-140.09-44.68
	c-46.65-22.59-86.97-62.37-86.97-62.37s-12.82-90.87-6.72-137.45c5.76-43.83-7.71-103.9-22.31-145.46
	c-12.97-36.98-31.24-77.33-37.25-116.19c6.98-2.65,15.2-9.14,15.2-9.14c7.52-0.58,12.55-3.62,12.55-3.62
	c5.78,0.19,13.17,3.25,19.12,7.45c65.62,46.42,104.61,88.12,150.58,137.54c-0.83,39.69,9.01,93.91,27.98,128.98
	c21.35-3.4,34.77-11.54,51.47-20.83c21.11-11.73,37.32-31.73,53.29-49.84c20.34,16.23,43.48,35.99,62.75,42.84
	c21.56,7.66,33.36,24.32,47.23,41.34c11.07,13.6,22.48,26.91,34.24,39.93c8.59,9.53,18.91,24.02,31.34,28.78
	c11.43,4.35,39.05-83.31,44.73-103.35C2556.35,850.78,2587.76,859.41,2608.61,861.79z" class="st4"></path>
<path d="M2280.45,1131.96c-41.54,0.71-85.15-23.32-136.7-44.75c-46.8-19.46-84.55-58.39-84.55-58.39" class="st5"></path>
<path d="M2241.66,1129.01c-3.4,10.36,7.47,35.41,17.43,40.34" class="st5"></path>
<path d="M2066.12,1075.97c11.52-4.77,23.47-13.49,25.14-27.28" class="st5"></path>
<path d="M2160.11,1078.22c-0.06-2.68-2.27-4.8-4.95-4.73c-2.68,0.06-4.8,2.27-4.73,4.95c0.06,2.68,2.27,4.8,4.95,4.73
	C2158.03,1083.1,2160.15,1080.9,2160.11,1078.22z" class="st5"></path>
<path d="M2222.03,884.76c-0.06-2.68-2.27-4.8-4.95-4.73c-2.68,0.06-4.8,2.27-4.73,4.95c0.06,2.68,2.27,4.8,4.95,4.73
	C2219.97,889.64,2222.09,887.44,2222.03,884.76z" class="st5"></path>
<path d="M2207.79,927.07c-0.06-2.68-2.27-4.8-4.95-4.73c-2.68,0.06-4.8,2.27-4.73,4.95c0.06,2.68,2.27,4.8,4.95,4.73
	C2205.73,931.95,2207.83,929.74,2207.79,927.07z" class="st5"></path>
<path d="M2191.79,969.12c-0.06-2.68-2.27-4.8-4.95-4.73c-2.68,0.06-4.8,2.27-4.73,4.95s2.27,4.8,4.95,4.73
	C2189.72,974,2191.84,971.79,2191.79,969.12z" class="st5"></path>
<path d="M2178.67,1008.66c-0.06-2.68-2.27-4.8-4.95-4.73s-4.8,2.27-4.73,4.95c0.06,2.68,2.27,4.8,4.95,4.73
	C2176.61,1013.54,2178.73,1011.34,2178.67,1008.66z" class="st5"></path>
<path d="M2169.23,1051.4c-0.06-2.68-2.27-4.8-4.95-4.73s-4.8,2.27-4.73,4.95s2.27,4.8,4.95,4.73
	C2167.17,1056.28,2169.29,1054.07,2169.23,1051.4z" class="st5"></path>
<path d="M2173.68,747.63c-6.4,27.81-10.96,58.17-8.93,86.9c0.9,12.76,0.96,27.66,6.17,39.5
	c14.49-5.89,38.02-14.45,45.8-11.65c9.83,9.81,23.04,35.58,29.87,46.5c60.14-31.75,91.51-72.17,96.28-100.71" class="st7"></path>
<path d="M2216.74,862.39c-29.16,64.64-57.64,133.49-67.64,202.16" class="st7"></path>
<path d="M2230.7,884.59c-24.34,59.82-49.84,123.99-58.92,186.44" class="st5"></path>
<path d="M2364.53,982.78c9.57-44.38,21.77-85.43,45.22-126.13" class="st5"></path>
<path d="M2332.7,835.15c15.74,5.7,30.36,18.56,44.47,27.23c7.41,4.56,13.75,8.86,19.25,15.74" class="st5"></path>
<path d="M2528.17,889.9c20.38,19.57,45.45,23.32,66.86,22.87" class="st5"></path>
<path d="M2596.58,883.97c-0.04-2.29-1.95-4.13-4.24-4.07c-2.29,0.04-4.13,1.95-4.07,4.24c0.04,2.29,1.95,4.13,4.24,4.07
	C2594.8,888.16,2596.64,886.26,2596.58,883.97z" class="st5"></path>
<g>
	<path d="M2235.41,606.81c-12.03,4.28-23.14,11.11-32.16,20.43c-17.32,17.94-25.84,42.18-33.85,65.58
		c-7.99,23.34-15.95,49.09-6.89,71.45c7.54,18.58,25.82,30.87,45.24,36.33c61.7,17.34,123.82-19.21,144.99-78.1
		c13.9-38.65-3.85-84.68-37.19-106.99C2292.66,600.2,2261.81,597.41,2235.41,606.81z" class="st2"></path>
	<path d="M2216.03,680.01c-6.4-15.74-26.1-10.81-26.1-10.81" class="st7"></path>
	<path d="M2248.32,695.96c24.9-6.12,39.48,21.41,39.48,21.41" class="st7"></path>
	<path d="M2202.76,696.78c-2.27,4.07-6.17,6.21-8.69,4.77c-2.53-1.41-2.76-5.87-0.49-9.91c2.27-4.07,6.17-6.21,8.69-4.77
		C2204.81,688.28,2205.03,692.71,2202.76,696.78z"></path>
	<path d="M2258.98,724.42c-2.27,4.07-6.17,6.21-8.69,4.77c-2.53-1.41-2.76-5.87-0.49-9.91c2.27-4.07,6.17-6.21,8.69-4.77
		C2261.04,715.92,2261.25,720.35,2258.98,724.42z"></path>
	<path d="M2217.25,686.18c0.24,9.76-7.47,20.04-11.95,28.3c-2.72,5.01-7.56,10.6-3.13,16.12" class="st7"></path>
	<ellipse ry="18.43" rx="18.43" cy="757.47" cx="2257.48" class="st9"></ellipse>
	<path d="M2160.04,722.68c4.88,5.52,13.19,6.72,19.42,2.44c6.74-4.62,8.46-13.85,3.83-20.6
		c-3.4-4.97-9.31-7.17-14.88-6.17C2165.14,706.3,2162.16,714.46,2160.04,722.68z" class="st9"></path>
	<path d="M2195.41,773.38c12.76,1.95,23.85-11.35,30.64-19.91c-14.99-2.89-31.64-9.31-43.68-18.67
		c0,0-2.8,14.79-1.61,22.61C2181.92,764.95,2187.08,772.1,2195.41,773.38z" class="st2"></path>
	<path d="M2367.55,645.63c-3.49-28.28-24.3-59.46-90.12-59.8c-15.52-0.09-30.96,0.94-46.2,2.53
		c-8.24,0.86-20.08,0.79-24.96-6.14c-4.39,4.88-7.02,27.19-3.75,32.97c0,0-6.02-2.12-11.35-6.94c-6.74,33.7,51.6,30.87,64.94,33.25
		c10.92,1.95,62.41,4.58,55.15,27.26c15.12,7.69,15.33,45.56,11.35,53.18c3.47,8.56,6.51,17.24,4.03,26.42
		c-2.51,9.27-23.38,25.52-21.8,36.01c-0.32-2.06,16.27,6.4,40.57-13.21c11.15-9.01,32.29-27.79,40.72-54.32
		C2393.97,692.15,2393.27,661.77,2367.55,645.63z" class="st6"></path>
	<path d="M2333.66,727.78c10.19-13.1,13.64-32.27,9.12-48.17" class="st7"></path>
	<path d="M2339.33,731.78c8.05-6.02,10.94-14.09,12.01-23.59" class="st7"></path>
	<path d="M2338.01,652.01c5.46-34.09-63.2-31.04-79.95-41.79" class="st7"></path>
	<path d="M2346.83,645.5c7.71-28.8-36.33-30-51.47-39.39" class="st7"></path>
	<g>
		<path d="M2304.56,770.26c15.54,2.72,36.38-11.41,36.93-28.43c0.51-15.24-18.76-21.41-28.69-10.92" class="st2"></path>
		<path d="M2310.92,749.32c1.56-9.14,15.27-8.5,19.53-1.8" class="st7"></path>
		<path d="M2311.24,748.23c4.11-4,9.36,2.76,9.51,6.77" class="st7"></path>
	</g>
	<path d="M2200.72,629.98c-15.65,17.62-23.72,40.62-31.32,62.86c-7.99,23.34-15.95,49.09-6.89,71.45
		c7.54,18.58,25.82,30.87,45.24,36.33" class="st7"></path>
</g>
<path d="M2052.69,793.42c9.29-23.34,24.54-51.98,39.07-72.17c10.58-14.67,22.1-40.32,40.81-46.67" class="st5"></path>
<path d="M2110.2,696.97c18.52,9.29,35.37,33.57,47.12,50.04" class="st5"></path>
<path d="M540.37,840.83c-32.78,7.94-81.27,7.45-111.03-5.7c-13.85-6.12-48.07-12.12-56.54-21.69
	c4.05-7.41,5.42-15.27,8.54-22.97c5.67-13.92,9.38-11.63,21.13-17.24c14.54-6.96,15.78-24.88,36.27-23.89
	c22.01,1.05,41.11-10.02,61.94-18.76c16.44-6.89,33.04-12.7,50.34-17.36c12.85-3.47,27.56-6.32,39.39,0.49
	c4.35,2.51,7.52,6.87,11.97,9.21c4.84,2.53,17.86-6.98,22.76-4.54c6.12,3.06,21.75,5.18,28.37,8.03
	c-8.67,11.67-16.16,41.45-22.07,55.02c-10.62,24.43-38.28,59.35-69.58,52.82" class="st2"></path>
<path d="M572.73,759.53c2.51,26.55-1.73,54.85-25.18,73.2c-27.04-1.8-75.06-25.18-85.28-51.08
	c-1.88-4.75-6.74-17.92-3.19-22.48" class="st7"></path>
<path d="M570.09,1166.35c-3-13.75-13.75-43.98-13.75-43.98c28.43-20.96,27.85-43.76,23.59-78.3
	c30.3-18.48,83.86-42.44,115.53-64.47c0,0,29.91,36.16,60.51,26.14l18.39,26.48" class="st7"></path>
<g>
	<path d="M513.8,979.91l7.71-17.96c0.64-1.5,2.38-2.18,3.88-1.54c1.58,0.6,2.18,2.38,1.54,3.88l-7.71,17.98
		L513.8,979.91z" class="st2"></path>
	<path d="M521.85,968.09c-2.08-0.98-3.06-3.4-2.23-5.59c7.24-18.91,0.21-28.45-8.69-40.53
		c-4.86-6.62-10.38-14.09-13.75-23.77c-6.04-17.39-5.42-37.92,1.91-61.04c0.73-2.33,3.21-3.62,5.55-2.89
		c2.31,0.75,3.62,3.21,2.89,5.55c-6.72,21.26-7.39,39.91-1.99,55.45c2.91,8.39,7.79,15.01,12.5,21.41
		c9.25,12.55,18.8,25.52,9.83,48.94c-0.88,2.29-3.43,3.43-5.72,2.55C522.07,968.17,521.96,968.13,521.85,968.09z" class="st2"></path>
</g>
<g>
	<path d="M680.44,898.4l-16.49-6.02c-1.37-0.51-2.89,0.19-3.4,1.58c-0.6,1.41,0.19,2.89,1.58,3.4l16.49,6.04
		L680.44,898.4z" class="st2"></path>
	<path d="M667.77,896.39c0.64-1.95-0.34-4.09-2.27-4.88c-16.81-6.92-18.71-17.36-21.13-30.62
		c-1.33-7.24-2.8-15.46-7.07-23.59c-7.64-14.64-21.43-26.87-41.04-36.31c-1.97-0.96-4.35-0.13-5.31,1.84
		c-0.94,1.97-0.13,4.35,1.86,5.31c18.03,8.69,30.62,19.74,37.45,32.84c3.68,7.09,5.01,14.32,6.29,21.35
		c2.51,13.77,5.1,27.98,25.93,36.55c2.03,0.84,4.35-0.13,5.18-2.16C667.7,896.58,667.74,896.47,667.77,896.39z" class="st2"></path>
</g>
<path d="M617.92,1236.02c21.07-13.47,15.16-47.7,4.37-65.75" class="st5"></path>
<path d="M804.34,1101.58c-5.93,4.2-15.2-1.33-20.43-4.52c-9.44-5.76-11.11-13.42-17.24-21.84" class="st5"></path>
<path d="M689.09,1295.24c17.04-3.06,34.02-5.35,51.23-7.47" class="st5"></path>
<path d="M836.14,1190.16c-6.02,5.2-11,12.12-16.04,18.18" class="st5"></path>
<path d="M739.75,1189.28c-7.56,1.48-15.14,3.51-22.74,4.75" class="st5"></path>
<path d="M739.17,1196.43c-8.8,6.87-16.19,15.44-25.24,21.92" class="st5"></path>
<path d="M754.65,1184.67c12.16-6.17,24.96-11.69,36.74-18.61" class="st5"></path>
<g>
	<g>
		<g>
			<path d="M190.19,725.68c26.55,51.36,78.51,7.39,90.14-17.21c11.07-23.42,19.18-47.25,33.21-69.43
				c18.24-28.86,73.74-81.83,126.26-24.99c-0.83,5.78-0.21,6.32-1.16,11.75c-28.28-10.71-41.9,8.18-50.21,25.26
				c-22.74,46.82,0.56,160.36-84.59,155.42c27.88-6.62,49.07-44.79,45.48-64.25c-9.12,30.06-32.59,52.71-68.41,61.7
				c-27.47,6.89-75.75-23.72-90.78,14.97c-6.89-29.67-2.55-42.56,18.93-44.62c38.77-3.68,54.92-6.49,69.99-38.11
				c-12.31,11.82-26.18,28.56-48.39,28.58C200.27,764.78,190.19,725.68,190.19,725.68z" class="st6"></path>
			<path d="M427.65,603.11c-41.04-27.6-79.92-18.22-104.67,4.56c-14.3,13.15-22.44,31.13-31.69,48.11
				c-7.39,13.57-26.83,74.87-59.37,41.51" class="st7"></path>
			<path d="M432.3,623.83c-28.28-4.71-48.99,27.96-48.92,46.16c0.11,27.51,21.13,80.1-7.9,105.47" class="st7"></path>
		</g>
	</g>
	<path d="M420.67,612.66c-7.09-7.56-23.96-6.94-33.31-5.87c-23.53,2.7-44.23,27.17-49.33,48.97" class="st7"></path>
	<path d="M416.49,617.73c-18.63-7.75-38.15,8.84-48.82,21.71" class="st7"></path>
</g>
<path d="M532.17,590.71c11.65,5.27,22.16,12.97,30.38,22.99c15.8,19.29,22.29,44.17,28.35,68.13
	c6.04,23.89,11.88,50.23,1.01,71.77c-9.04,17.9-28.26,28.65-48.07,32.5c-62.92,12.23-121.82-29.31-138.1-89.73
	c-10.68-39.65,10.79-84.08,45.84-103.58C475.65,579.41,506.63,579.17,532.17,590.71z" class="st2"></path>
<path d="M547.59,670.66c7.66-15.16,26.89-8.63,26.89-8.63" class="st7"></path>
<path d="M514.08,683.91C489.78,675.77,473,702,473,702" class="st7"></path>
<path d="M559.43,688.45c1.93,4.24,5.63,6.68,8.29,5.48s3.23-5.61,1.31-9.85s-5.63-6.68-8.29-5.48
	C558.08,679.8,557.5,684.21,559.43,688.45z"></path>
<path d="M501.13,711.38c1.93,4.24,5.63,6.68,8.29,5.48c2.65-1.2,3.23-5.61,1.31-9.85s-5.63-6.68-8.29-5.48
	C499.78,702.75,499.2,707.14,501.13,711.38z"></path>
<path d="M545.86,676.69c-1.03,9.72,5.8,20.6,9.59,29.18c2.29,5.22,6.68,11.18,1.8,16.34" class="st7"></path>
<ellipse ry="18.43" rx="18.43" cy="744.55" cx="499.85" class="st9" transform="matrix(0.4056 -0.914 0.914 0.4056 -383.4469 899.4314)"></ellipse>
<path d="M599.87,717.76c-5.31,5.1-13.68,5.61-19.55,0.84c-6.34-5.16-7.3-14.49-2.12-20.83
	c3.81-4.67,9.87-6.4,15.35-4.92C596.13,701.04,598.44,709.39,599.87,717.76z" class="st9"></path>
<path d="M405.75,696.37c-10.68-39.65,10.79-84.08,45.84-103.58c24.07-13.4,55.07-13.64,80.61-2.1
	c11.65,5.27,22.16,12.97,30.38,22.99c15.8,19.29,22.29,44.17,28.35,68.13c6.04,23.89,11.88,50.23,1.01,71.77
	c-9.04,17.9-28.26,28.65-48.07,32.5c-5.01,0.98-10,1.61-14.94,1.91" class="st7"></path>
<path d="M560.48,765.4c-12.87,0.9-22.84-13.27-28.9-22.35c15.18-1.65,32.31-6.68,45.07-15.01c0,0,1.58,14.99-0.26,22.65
	C574.61,758.1,568.89,764.82,560.48,765.4z" class="st2"></path>
<path d="M588.1,667.04c-7.96-3.79-15.42-7.09-24.13-9.59c-34.36-9.87-70.42-5.52-103.54-19.91
	c0.32,16.08-4.07,29.44-6.87,44.75c-2.48,13.57-10.75,36.27-6.19,49.74c5.72,16.83,3.51,29.93,16.57,42.5c0,0-12.61-4.9-17.17-7.86
	c-4.67-3.02-9.38-6.62-13.75-10.11c-9.19-7.32-17.02-16.31-23.19-26.29c-22.67-36.59-25.71-96.67,15.09-121.44
	c0,0,8.59-13.62,23.04-21.95c16.91-9.74,31.49-14.02,48.56-13.38c16.96,0.62,33.74,6.87,47.98,15.89
	C571.66,606.58,582.94,636.7,588.1,667.04z" class="st6"></path>
<g>
	<path d="M458.46,763.81c-15.54,2.65-36.33-11.54-36.85-28.56c-0.45-15.24,18.82-21.35,28.73-10.83" class="st2"></path>
	<path d="M452.16,742.85c-1.52-9.14-15.22-8.54-19.5-1.86" class="st7"></path>
	<path d="M451.84,741.78c-4.09-4-9.36,2.74-9.53,6.72" class="st7"></path>
</g>
<path d="M434.27,718.74c-2.91-6.47-1.71-14.45-0.79-21.11c1.61-11.54,2.72-22.65,2.51-34.6" class="st7"></path>
<path d="M427.88,721.01c-7.52-3.64-6.02-20.88-7-27.7" class="st7"></path>
<path d="M461.54,621.82c12.35-11.43,37.47-2.38,50.74,2.53" class="st7"></path>
<path d="M455.01,616.23c16.1-18.2,47.21-12.67,67.27-5.44c15.87,5.72,30.45,14.58,44.21,24.34" class="st7"></path>
<path d="M2495.93,954.09c2.06,7.73,4.58,15.29,7.6,22.69" class="st5"></path>
<path d="M2507.23,948.16c7.62,16.29,17.71,33.31,22.46,50.94" class="st5"></path>
<path d="M411.68,768.78c-7.04,9.16-12.74,18.91-19.76,28.24" class="st7"></path>
<path d="M597,721.08c16.51,3.15,14.92,22.4,35.61,13.19" class="st7"></path>
<path d="M268.42,831.68c7.84-13.75,21.73-28.73,24.79-44.4" class="st5"></path>
<path d="M270.01,804.88c4.5-5.14,8.93-10.32,13.62-15.27" class="st5"></path>
<path d="M679.09,702.79c28.9,33.4,80.78,84.53,78.75,132.77" class="st5"></path>
<path d="M392.58,829.14c7.22,55.15,13.15,111.31,32.27,163.17" class="st5"></path>
<path d="M634.15,774.56c7.69-15.16,20.43-27.17,31.17-39.93c6.79-8.07,15.44-13.17,22.55-21.13" class="st5"></path>
<path d="M395,842.28c10.11-2.72,20.3-6.21,30.53-7.77" class="st5"></path>
<path d="M221.51,667.38c-7.71-4.77-13.4-16.51-18.33-23.89c-9.89,14.56-41.71,26.7-58.02,25.46
	c5.5,8.54,13.77,20,17.02,29.63c6.72-1.09,11.86,1.01,18.69-1.09c4.95-1.52,9.59-3.17,14.37-5.29
	C204.79,688.02,219.11,678.28,221.51,667.38z" class="st2"></path>
</svg>
