<?xml version="1.0" encoding="UTF-8"?>
<svg width="526px" height="526px" viewBox="0 0 526 526" version="1.1" xmlns="http://www.w3.org/2000/svg" xmlns:xlink="http://www.w3.org/1999/xlink">
    <!-- Generator: Sketch 58 (84663) - https://sketch.com -->
    <title>1</title>
    <desc>Created with Sketch.</desc>
    <defs>
        <linearGradient x1="90.3412828%" y1="12.0707596%" x2="5.83045624%" y2="87.9292404%" id="linearGradient-1">
            <stop stop-color="#FF3F00" offset="0%"></stop>
            <stop stop-color="#6F1100" offset="100%"></stop>
        </linearGradient>
        <filter x="0.0%" y="0.0%" width="100.0%" height="100.0%" filterUnits="objectBoundingBox" id="filter-2">
            <feGaussianBlur stdDeviation="0" in="SourceGraphic"></feGaussianBlur>
        </filter>
    </defs>
    <g id="1" stroke="none" stroke-width="1" fill="none" fill-rule="evenodd">
        <rect fill="#FFFFFF" x="0" y="0" width="526" height="526"></rect>
        <g id="编组-2" transform="translate(304.300000, 149.000000)">
            <g id="编组-31">
                <path d="M48.62,76.2243733 C63.9743172,18.4543219 83.0502486,-6.47801599 105.847794,1.42735945 C128.64534,9.3327349 134.385623,38.8869484 123.068644,90.09" id="路径-75" stroke="#614745" stroke-width="7.15"></path>
                <path d="M0,68.8113337 L0,205.92 C-1.19604532e-15,210.658603 3.84139685,214.5 8.58,214.5 L168.74,214.5 C173.478603,214.5 177.32,210.658603 177.32,205.92 L177.32,71.9782549 C177.32,67.3057633 173.581202,63.4923051 168.909623,63.3999318 L8.74962334,60.2330105 C4.01194629,60.1393302 0.0953572405,63.9040333 0.00167685829,68.6417103 C0.000558980075,68.6982445 3.54578888e-15,68.7547884 0,68.8113337 Z" id="路径-74" fill="url(#linearGradient-1)"></path>
            </g>
            <path d="M72.3914651,119.445361 C72.5098456,119.085664 72.6578191,118.860856 72.8353898,118.770932 C73.0129606,118.681007 73.3976915,118.66602 73.9895941,118.72597 C74.8774479,118.905819 75.6617071,119.010729 76.342395,119.040704 C77.023083,119.070678 77.8221395,119.520294 78.7395885,120.389563 L79.4716128,121.064912 C80.0363332,121.569587 80.4878045,121.928974 80.8260346,122.14308 C82.0098397,123.102274 82.6017334,124.091427 82.6017334,125.11057 C82.6017334,125.45314 82.5262368,125.979221 82.3752419,126.688825 L82.1578087,127.628441 C81.9802379,128.407786 81.8174672,128.91735 81.6694915,129.157148 C81.5215159,129.396947 81.3587451,129.48687 81.1811744,129.42692 C80.8852231,129.42692 80.5300868,129.651728 80.1157551,130.10135 C79.7014233,130.550972 79.4942605,130.955625 79.4942605,131.315323 C79.4942605,131.515155 79.3298455,131.798247 79.0010116,132.164604 L78.7839809,132.394411 C78.299697,132.884907 77.6197524,134.143335 76.7441296,136.169727 L75.6244094,138.887519 C75.1963833,139.910619 74.8882062,140.593838 74.6998736,140.937186 C74.6406834,140.997136 75.2917664,141.416776 76.6531423,142.196121 C80.1453675,144.294357 81.8914539,146.212716 81.8914539,147.951254 C81.8914539,148.370901 81.9654406,148.595709 82.1134162,148.625684 C82.2367293,148.650663 82.5347316,148.550748 83.0074302,148.325938 L83.3120129,148.176064 C83.9631058,147.846341 85.5020294,147.32179 87.9288299,146.602395 L90.3413781,145.799737 C96.1891428,143.884684 100.659868,142.656566 103.753647,142.115356 L106.895453,141.591927 C107.83321,141.421835 108.423442,141.290852 108.666155,141.198976 L108.748899,141.161996 C108.98566,141.028774 109.736854,140.93108 111.0025,140.86891 L111.501232,140.847262 C113.069774,140.787312 114.209169,140.847261 114.919452,141.02711 C115.65933,141.127026 116.214233,141.310203 116.58417,141.576645 L116.783936,141.746501 C118.115717,142.933504 119.087904,143.586347 119.700521,143.705045 L119.891409,143.724828 C120.024587,143.724828 120.166087,143.792271 120.315912,143.927157 L120.468511,144.084524 C120.652658,144.297678 121.281089,144.688455 122.353819,145.256865 L122.77692,145.478345 C124.1087,146.167766 124.83377,146.632368 124.952151,146.872167 L125.573645,148.221026 L125.744113,148.717407 C125.808038,148.92603 125.84,149.075303 125.84,149.165227 C125.84,149.315101 125.692027,149.629832 125.396075,150.109429 C125.017258,150.589026 124.789969,151.106984 124.714207,151.663314 L124.685796,152.087756 C124.685796,152.807151 124.478633,153.4516 124.064301,154.021121 C123.732836,154.476738 123.448726,155.076226 123.211966,155.819598 L123.043274,156.404106 C122.843507,157.168463 122.635419,157.8738 122.419006,158.520128 L122.199817,159.146786 C121.903866,159.956106 121.726298,160.57058 121.667108,160.990227 C121.622715,161.304963 121.520058,161.577543 121.359135,161.807973 L121.178791,162.024353 C120.965706,162.240171 120.837856,162.52313 120.795239,162.873234 L120.779258,163.148402 C120.779258,163.5081 120.631285,164.152548 120.335334,165.081767 C120.039382,166.010986 119.77303,166.565511 119.536269,166.74536 C119.403091,166.880247 119.319856,167.048853 119.286561,167.251182 L119.269914,167.464752 C119.269914,167.824449 119.107144,168.438923 118.781597,169.308193 C118.502557,170.053281 118.277879,170.501062 118.107557,170.651547 L118.026925,170.702014 C117.837516,170.797933 117.761753,170.94181 117.799635,171.133648 L117.849355,171.28652 C117.967736,171.556293 117.849357,171.691177 117.494215,171.691177 C117.210102,171.691177 116.973344,171.844646 116.783936,172.151587 L116.407959,172.906068 C116.253945,173.196027 116.051009,173.549298 115.799149,173.965884 L115.230199,174.883478 C114.582806,175.906368 114.184664,176.688279 114.035765,177.229228 L113.98721,177.44631 C113.898425,177.985857 113.765249,178.255626 113.587678,178.255626 C113.173346,178.255626 112.611047,177.566216 111.900764,176.187375 C111.604813,175.687795 111.370521,175.396376 111.197884,175.313114 L111.1017,175.288135 C110.959643,175.288135 110.817588,175.134667 110.675532,174.827726 L110.242348,173.811604 C109.894515,173.024121 109.663055,172.5721 109.547963,172.455531 C109.399988,172.305657 109.030054,172.200747 108.438151,172.140797 L107.517007,172.152038 C107.364099,172.157033 107.24572,172.163694 107.161868,172.172021 L106.739499,172.220317 C106.273808,172.259952 105.330686,172.32337 103.910119,172.410569 C101.009797,172.710317 97.4880293,173.399727 93.3447114,174.47882 L92.4097478,174.733911 C90.6992735,175.189038 89.9455154,175.313829 90.1484535,175.108288 C90.3098814,174.999288 91.1806013,174.704499 92.7606364,174.223912 L96.0588682,173.252706 C96.2914838,173.188861 96.4521839,173.147946 96.5409693,173.129961 L96.6297542,173.040037 C96.1562321,172.860188 94.1141989,173.249854 90.5035932,174.209048 C89.8525004,174.388897 89.3197961,175.348076 88.9054643,177.086615 C88.846274,177.206514 88.6687059,177.206514 88.3727546,177.086615 C88.0768033,176.966715 87.7364645,176.741908 87.3517278,176.412185 C86.9669911,176.082462 86.7154363,175.797706 86.5970558,175.557907 C86.3750923,175.243172 86.0948668,174.979022 85.7563742,174.765453 L85.3984591,174.568744 C84.9791948,174.368912 84.7654543,174.096228 84.7572342,173.750686 L84.7769645,173.534618 C84.8479928,173.174921 84.7864361,172.863186 84.5922925,172.59941 L84.4218247,172.410569 C84.0962783,172.110821 83.9631022,171.601257 84.0222925,170.881862 C84.0222925,170.282366 83.9483058,169.877712 83.8003301,169.667888 C83.6523545,169.458065 83.459989,169.353155 83.223228,169.353155 C83.0456572,169.413104 82.9272785,169.38313 82.8680882,169.263231 C82.808898,169.143332 82.7497086,168.963485 82.6905184,168.723687 C82.4537573,166.085905 82.0986211,163.837828 81.6250991,161.979391 C81.3291478,160.900298 81.1071876,159.956106 80.959212,159.146786 C80.8112364,158.337467 80.5004922,157.408262 80.0269701,156.359144 C79.5534481,155.310026 78.946757,154.54568 78.2068788,154.066083 L77.6524244,153.695375 C77.3359391,153.475153 77.1257556,153.308764 77.0218716,153.196206 L76.9638896,153.121881 C76.8751042,152.972007 76.6827388,152.867097 76.3867875,152.807148 L76.5643574,152.537376 C76.9786892,152.537376 77.185852,152.477427 77.185852,152.357528 C77.185852,152.254757 76.9358071,152.096933 76.4357109,151.884051 L76.1648251,151.773022 C75.4841372,151.503249 75.0698116,151.398339 74.921836,151.458288 C74.7805865,151.515513 74.7202352,154.099036 74.7407807,159.208931 L74.7414918,163.690767 C74.7155965,166.738443 74.6244442,168.559688 74.4680341,169.154535 L74.4335188,169.263231 C74.1967578,169.862727 74.1671631,170.761957 74.3447338,171.960949 L74.3891265,172.645372 C74.4088565,173.038373 74.4088564,173.304812 74.3891263,173.444694 C74.3595312,173.654518 74.1967604,173.849351 73.9008091,174.0292 C73.5555326,174.179074 73.4055032,174.443432 73.4507184,174.822279 L73.5012769,175.063326 C73.6492525,175.572897 73.6048605,175.917602 73.3680995,176.097451 C73.2645165,176.149907 73.0929597,176.592497 72.8534247,177.425233 L72.7466049,177.806006 C72.4506536,178.885099 72.3026802,179.604483 72.3026802,179.964181 C72.3026802,180.323879 72.0067333,180.233956 71.4148308,179.694409 C70.9074857,179.231941 70.6175775,178.90161 70.5451006,178.703411 L70.5269814,178.615322 C70.5269814,178.435473 70.1422505,177.985858 69.3727771,177.266462 C68.7216843,176.666966 68.2037773,175.872646 67.8190406,174.883478 C67.434304,173.894309 67.3899119,173.219886 67.6858632,172.860189 C67.8042437,172.62039 67.8634331,172.260698 67.8634331,171.781101 C67.8634331,171.301505 67.8042437,171.001761 67.6858632,170.881862 C67.5674827,170.821912 67.4639013,170.612092 67.3751159,170.252394 C67.2863305,169.892697 67.0939651,169.577966 66.7980138,169.308193 C66.5612528,169.092374 66.4854897,168.847783 66.5707238,168.574414 L66.6648364,168.363991 C66.8305691,168.076233 66.8637157,167.817254 66.764276,167.587049 L66.6648364,167.41979 C66.4576705,167.150016 66.5316572,166.895235 66.8867987,166.655436 C67.18275,166.415638 67.3751155,165.921061 67.4639009,165.171691 L67.5028576,164.770703 C67.5493641,164.20975 67.5995696,163.322826 67.6534747,162.109924 L67.8166768,157.875342 C67.8706137,155.939933 67.7974145,154.820062 67.5970783,154.515703 L67.3085269,154.24593 C67.2345396,154.185981 67.1827487,154.156007 67.1531536,154.156007 C67.1087609,154.156007 67.0310747,154.223449 66.9200934,154.358335 L66.7980138,154.515703 C66.5020625,154.8754 66.265305,155.399951 66.0877343,156.089372 C65.9101635,156.778792 65.6142167,157.303343 65.1998849,157.663041 C64.9631238,157.950799 64.6979547,158.344063 64.4043724,158.842842 L64.178858,159.23671 C63.8582441,159.811227 63.6712214,160.250436 63.6177864,160.554345 L63.6017559,160.720455 C63.6017559,161.020203 63.3649984,161.439844 62.8914764,161.979391 C62.122003,162.758735 61.2933519,164.077607 60.405498,165.936044 L59.8382596,167.150021 C59.5160033,167.809463 59.3055517,168.169156 59.2069013,168.229105 C59.0589256,168.31903 58.6593974,168.873555 58.0083046,169.892698 L57.4997078,170.567685 C56.957498,171.256733 56.5943231,171.601253 56.4101756,171.601253 C56.1734146,171.601253 55.7886837,171.061715 55.2559714,169.982622 L54.7537803,169.08619 C54.360722,168.416444 54.0312485,167.939897 53.7653559,167.656543 L53.61345,167.509714 C53.3056606,167.245935 53.1493998,167.001344 53.1446651,166.775935 L53.1695253,166.610474 C53.2435131,166.385663 53.1325332,166.18167 52.8365825,165.998492 L52.6368156,165.891083 C52.1928887,165.681259 51.9709285,165.5164 51.9709285,165.396501 C51.9709285,165.036803 52.1780913,164.976854 52.5924231,165.216653 C52.7108037,165.276602 52.8587771,165.156705 53.0363478,164.856957 C53.1695259,164.632146 53.2361145,164.390477 53.2361142,164.131946 L53.2139177,163.867794 C53.2139177,163.448146 53.1103363,163.088454 52.9031704,162.788706 C52.747796,162.563895 52.5840998,162.42339 52.4120791,162.367187 L52.2372834,162.339086 C52.0005223,162.339086 51.9709277,162.099292 52.1484984,161.619695 C52.1484984,161.539762 52.1748048,161.433186 52.2274181,161.299966 L52.3260683,161.080151 C52.7995904,159.977078 53.4056909,158.778101 54.1443823,157.483196 L55.3200949,155.484881 C55.500953,155.171813 55.6637248,154.882059 55.808411,154.615618 L56.1882133,153.886235 C56.4775879,153.300061 57.1060187,152.33496 58.0735216,150.990908 L59.3835687,149.191833 C61.130281,146.754705 62.1811951,145.022308 62.5363366,143.9946 L62.7250044,143.651765 C62.8877763,143.3745 63.1245351,142.999819 63.4352826,142.527718 L63.9568957,141.746501 C64.6301848,140.749839 65.0202348,140.074478 65.1270536,139.720403 L65.1554924,139.588327 C65.1850875,139.288579 65.377453,138.868938 65.7325945,138.329391 C66.6204484,136.530903 65.9693653,136.321083 63.7793258,137.699924 C63.0690427,138.17952 62.521541,138.464277 62.1368044,138.554201 C61.7520677,138.644126 61.1453767,138.659113 60.3167131,138.599163 C59.2512884,138.599163 58.4250509,138.500064 57.8379831,138.301864 L57.5643799,138.194505 C57.0711277,137.969694 56.382639,137.786517 55.4988987,137.64497 L54.9452241,137.565038 C53.7910141,137.415164 53.1695257,137.190356 53.0807403,136.890608 C53.0141513,136.665797 52.8892985,136.508431 52.7061794,136.418507 L52.5036382,136.351064 C52.2668772,136.291115 52.3260665,136.171217 52.6812081,135.991369 C52.7206683,135.991369 52.7732812,135.978047 52.8390478,135.951403 L53.5690575,135.631673 C53.2849443,135.583713 52.925072,135.45902 52.4894336,135.25759 L52.1484984,135.092129 C51.6749764,134.91228 51.4530162,134.612537 51.4826114,134.19289 C51.5085071,133.825698 51.9762419,133.458512 52.8858279,133.091322 L53.3027027,132.933954 C54.9541108,132.394408 56.7732986,131.223609 58.7603106,129.421527 L59.4288636,128.797452 C60.2575272,128.018108 62.3587499,126.489416 65.7325945,124.211331 C66.6648411,123.626822 67.3390485,123.177205 67.7552266,122.862472 L68.0853955,122.5927 C68.4109419,122.292952 68.9288489,122.023183 69.6391319,121.783384 C70.9413176,121.423687 71.8587528,120.644353 72.3914651,119.445361 Z M114.34129,148.358578 C114.16516,147.757211 113.989033,147.41143 113.812903,147.321225 C113.636773,147.23102 113.108391,147.336258 112.227742,147.636941 C111.457173,147.84742 110.349496,148.011854 108.904685,148.130248 L108.264839,148.178169 C106.620959,148.298442 105.564196,148.508918 105.094516,148.809601 C104.624836,149.110285 104.39,149.831915 104.39,150.974512 C104.39,151.575879 104.434032,151.92166 104.522097,152.011865 C104.610162,152.10207 104.800966,152.117104 105.094516,152.056968 C105.564196,151.936694 106.444832,151.816423 107.736451,151.696149 C109.73259,151.395466 111.200318,151.666077 112.139677,152.507991 C112.668067,152.989084 113.07903,153.12439 113.37258,152.913912 C113.66613,152.703433 113.930321,152.117109 114.165161,151.154921 C114.4,150.072461 114.45871,149.140355 114.34129,148.358578 Z M75.7471,150.4074 C75.9187009,150.4074 76.0045,150.321601 76.0045,150.15 C76.0045,149.978399 75.9330007,149.8926 75.79,149.8926 C75.6469993,149.8926 75.5755,149.978399 75.5755,150.15 C75.5755,150.321601 75.6326994,150.4074 75.7471,150.4074 Z M85.3996,150.1929 C85.3996,150.021299 85.3424006,149.9069 85.228,149.8497 C85.1135994,149.7925 84.856202,149.7639 84.4558,149.7639 C83.7693966,149.7639 83.3976003,149.849699 83.3404,150.0213 L83.7694,150.3645 C83.8266003,150.3645 83.9409991,150.3931 84.1126,150.4503 L85.0993,150.5361 L85.0993,150.5361 C85.1851004,150.5361 85.2851994,150.421701 85.3996,150.1929 Z M98.6258299,154.776471 C98.6847234,154.608234 98.6847234,154.019417 98.6258299,153.01 L98.5374901,151.58 L96.7706948,151.916471 C95.6517188,152.084707 94.5622059,152.351077 93.5021234,152.715588 C92.4420409,153.0801 91.146404,153.262353 89.6151737,153.262353 L87.23,153.262353 L87.3183398,154.103529 L87.487952,154.789929 L87.487952,154.789929 L88.378417,158.057059 L88.378417,158.057059 C88.4373104,158.44961 88.5256493,158.673921 88.6434363,158.73 C88.7612232,158.73 88.8495621,158.701961 88.9084556,158.645882 C88.967349,158.589804 88.9967953,158.449609 88.9967953,158.225294 C88.9967953,158.000979 89.6446138,157.692551 90.9402702,157.3 L93.0054411,156.728418 C96.6022043,155.713116 98.4756515,155.062472 98.6258299,154.776471 Z M112.97,157.770395 C112.97,157.456797 112.939895,157.3 112.879684,157.3 L112.453508,157.438178 C111.896563,157.600203 110.864626,157.866758 109.357685,158.237849 L105.839324,159.112552 C105.289949,159.255061 104.987474,159.340789 104.931895,159.369737 C104.630841,159.746055 104.450211,161.031787 104.39,163.226974 L104.39,164.45 L105.473789,164.45 C106.196319,164.45 106.642366,164.392401 106.811938,164.277202 L106.873684,164.214803 C106.964,164.058004 107.219893,164.042324 107.641368,164.167763 C108.123055,164.355922 108.695049,164.43432 109.357368,164.402961 C110.019688,164.371601 110.396,164.246163 110.486316,164.026645 C110.576632,163.807126 110.531475,163.587611 110.350842,163.368092 C110.17021,163.148573 109.92937,163.038816 109.628316,163.038816 L110.621789,162.568421 L111.502371,162.268544 C111.878686,162.131345 112.066842,162.043147 112.066842,162.003947 L112.179031,161.624693 C112.231245,161.418896 112.298276,161.13372 112.380124,160.769164 L112.811242,158.747931 C112.917081,158.213838 112.97,157.887994 112.97,157.770395 Z M90.6409506,159.7882 C90.9841523,159.559399 91.012752,159.445 90.7267506,159.445 L90.2119506,159.445 C89.3279461,159.445 89.0584931,159.775906 89.4035862,160.437726 L89.5255506,160.6462 C89.6399511,160.875001 89.7829497,160.9322 89.9545506,160.8178 C90.1261514,160.703399 90.1833508,160.546101 90.1261506,160.3459 C90.0689503,160.145699 90.2405486,159.959801 90.6409506,159.7882 Z M90.0471,161.793775 C90.2187009,161.679374 90.3045,161.579275 90.3045,161.493475 C90.3045,161.407674 90.2330007,161.364775 90.09,161.364775 C89.9469993,161.364775 89.8755,161.450574 89.8755,161.622175 C89.8755,161.793776 89.9326994,161.850975 90.0471,161.793775 Z M92.1180941,161.99463 C91.432371,162.171657 91.0466563,162.180877 90.960942,162.022291 L90.9425747,161.944051 C90.9425747,161.708016 90.7886392,161.59 90.4807635,161.59 C90.1728878,161.59 90.0469406,161.724875 90.102918,161.99463 L90.4051955,163.309683 C90.7186679,164.72589 90.8949946,165.729029 90.9341782,166.319115 L90.9425747,166.54672 C90.9425747,167.018791 91.1384926,167.271682 91.5303344,167.305402 C91.9221761,167.339121 92.8737776,167.187386 94.3851672,166.850193 L95.2734024,166.632829 C96.4725181,166.3118 97.0720687,166.013345 97.0720687,165.73746 C97.0720687,165.400266 96.9881038,165.130515 96.8201716,164.928199 C96.6522395,164.725883 96.708216,164.186382 96.988103,163.309678 L97.24,162.196945 L96.6522403,162.298103 C96.2044212,162.43298 95.4207494,162.534137 94.3012015,162.601576 L93.6399697,162.715378 C93.0732008,162.791247 92.7898194,162.753313 92.7898194,162.601576 L92.8737851,162.39926 C93.0976947,162.062067 93.0976947,161.893473 92.8737851,161.893473 L92.5614337,161.929889 C92.4450015,161.946074 92.2972217,161.967655 92.1180941,161.99463 Z M99.1419,173.1158 L99.9141,172.6868 L99.8283,172.6868 L97.4259,173.2874 L97.4259,173.3732 L97.706063,173.352188 C98.0095722,173.317168 98.4881824,173.238372 99.1419,173.1158 Z M106.223573,116.091036 L106.27225,116.058214 C106.633852,115.703215 107.417311,115.762381 108.622651,116.235713 C109.707457,116.590712 110.611448,116.797792 111.334652,116.856959 C111.816788,116.856959 112.298917,117.093622 112.781053,117.566954 C113.142655,117.921954 113.572052,118.276949 114.069252,118.631946 L114.589053,118.986945 C115.25199,119.401111 115.64372,119.830062 115.764254,120.273811 C115.864699,120.643602 115.850051,121.177738 115.72031,121.87623 L115.628654,122.315048 C115.459906,123.048713 115.358659,123.630906 115.32491,124.061636 L115.312254,124.356284 C115.312254,124.800033 115.251988,125.08107 115.131454,125.199404 C115.01092,125.317737 114.799988,125.672731 114.498653,126.264396 C114.378119,126.560229 114.272654,126.767309 114.182253,126.885642 C114.121986,126.964531 114.041631,127.017123 113.941187,127.043419 L113.775453,127.063141 C113.654919,127.003975 113.21799,127.669588 112.464653,129.060003 C111.711315,130.450417 111.123721,131.737271 110.701852,132.920602 C110.500962,133.413657 110.341926,133.701269 110.224741,133.783444 L110.159452,133.808096 C110.038918,133.808096 109.978652,134.05955 109.978652,134.562466 C109.978652,135.065382 109.797853,135.479542 109.436251,135.804958 C109.134916,136.076138 109.021917,136.337043 109.097251,136.587678 L109.165051,136.736827 C109.320023,136.990398 109.2204,137.200497 108.866178,137.367129 L108.667851,137.446822 C108.258035,137.588822 107.944651,137.778152 107.727691,138.014818 L107.583051,138.201192 C107.407272,138.472372 107.168718,138.548384 106.867384,138.429229 L106.67905,138.334316 C106.287315,138.09765 105.940785,137.979319 105.63945,137.979319 L105.430054,138.005581 C105.043857,138.075614 104.229646,138.285713 102.987414,138.635881 L99.4169091,139.664326 C97.4507047,140.215313 95.9930145,140.55829 95.0438128,140.693263 L94.7462451,140.73055 C93.6313057,140.848883 92.9683788,141.115129 92.7574443,141.529295 C92.5465098,141.943461 92.4410442,142.328038 92.4410442,142.683037 C92.5615781,142.97887 92.471179,143.067619 92.169844,142.949286 C92.109577,142.830952 91.9589118,142.712621 91.7178438,142.594288 C91.1754409,142.180122 90.3919817,141.470134 89.3674429,140.464302 C88.342904,139.45847 87.8758418,138.763274 87.9662423,138.378691 C88.0385627,138.071025 88.024099,137.839094 87.9228506,137.682896 L87.8306422,137.579946 C87.6498412,137.43203 87.5594421,137.091827 87.5594421,136.559328 C87.5594421,136.115579 87.4024992,135.774553 87.0886093,135.536245 L86.8814418,135.405586 C86.5047731,135.208364 86.3269035,134.92897 86.3478301,134.567398 L86.3842416,134.340593 C86.4806688,133.961927 86.4710265,133.621131 86.355314,133.3182 L86.2486415,133.098101 C86.0377071,132.743102 86.0678401,132.41769 86.3390416,132.121857 C86.610243,131.826025 86.6554426,131.042079 86.4746416,129.769998 C86.2938407,128.497917 86.0377098,127.787929 85.7062413,127.640012 C85.3747728,127.492096 85.2090411,127.211059 85.2090411,126.796893 C85.2090411,125.606166 84.8168407,124.438103 84.0324296,123.292679 L83.6722405,122.803169 C83.1298375,122.093171 82.8887732,121.560679 82.9490402,121.20568 C83.0093071,120.909847 83.0997063,120.73235 83.2202403,120.673184 C83.3407743,120.614017 83.7023708,120.614017 84.3050407,120.673184 C85.2090456,120.673184 86.2034361,120.909846 87.288242,121.383179 C88.1922469,121.738178 88.9305065,121.85651 89.5030429,121.738177 L89.8249778,121.656672 C90.6219723,121.432083 92.3377167,120.838009 94.9722452,119.874439 C96.8254553,119.16444 98.6786445,118.51269 100.531844,117.919179 L104.714593,116.62957 C105.558326,116.359996 106.061317,116.180485 106.223573,116.091036 L106.223573,116.091036 Z M105.82,123.39704 C105.82,123.091209 105.763507,122.953587 105.650519,122.98417 L99.8881481,125.140267 L99.8881481,125.140267 L94.38,127.250488 L94.5494815,128.534971 C94.7848736,129.707322 94.9221842,131.0708 94.9614157,132.625434 L94.9731852,133.581154 C94.9731852,134.009317 95.0155551,134.269269 95.1002963,134.361018 C95.1680892,134.434418 95.3533873,134.439311 95.6561947,134.375698 L96.3595439,134.208715 C96.8951044,134.069258 97.6747151,133.830712 98.6983847,133.493076 L99.8034074,133.12241 C101.561002,132.524341 102.838729,132.143756 103.636618,131.980647 L103.913333,131.929676 C104.676004,131.807343 105.057333,131.700304 105.057333,131.608555 C105.057333,131.532097 104.939639,131.296356 104.704248,130.901326 L104.548889,130.645193 C104.209924,130.094698 103.955705,129.758289 103.786222,129.635956 C103.61674,129.452458 103.757973,129.024301 104.209926,128.351474 C104.548891,127.739812 104.901973,126.852916 105.269185,125.690759 L105.538973,124.791994 C105.726325,124.124162 105.82,123.659181 105.82,123.39704 Z M94.6911294,107.01854 L100.883807,105.486112 L101.776867,105.299025 C102.565773,105.114041 103.042215,104.935363 103.2062,104.762991 L103.262154,104.677331 C103.345,104.441571 104.409231,104.350896 106.454878,104.405302 L106.986736,104.421926 C109.380053,104.507061 110.696358,104.734085 110.935689,105.103005 C111.175021,105.471925 111.414349,105.656382 111.653681,105.656382 C112.072512,105.656382 112.476378,105.911784 112.865292,106.422595 C113.254206,106.933407 113.44866,107.586101 113.44866,108.380698 C113.508493,109.345564 113.717905,109.927313 114.076903,110.125962 C114.4359,110.324611 114.495732,110.523258 114.256401,110.721907 C114.076902,110.870893 113.846922,110.956028 113.566456,110.977311 L113.269162,110.977311 C112.934098,110.954608 112.474587,111.031797 111.89062,111.208877 L111.429309,111.360418 C110.711313,111.612671 109.508762,111.932187 107.821625,112.318973 L105.334452,112.886952 C100.361367,114.046927 97.2324482,114.95699 95.9476147,115.617162 C95.3492853,115.900946 94.6911329,115.900946 93.9731377,115.617162 L93.0868659,115.255338 L93.0868659,115.255338 L92.582029,115.021218 C92.4563798,114.953109 92.2445737,114.86457 91.9466076,114.755597 L91.2357947,114.510408 C90.7770756,114.359057 90.351601,114.207707 89.9593657,114.056356 L89.3959412,113.829329 C88.8574475,113.602302 88.4685366,113.48879 88.2292049,113.48879 C87.9898732,113.48879 87.750545,113.3469 87.5112133,113.063116 C87.3317145,112.850277 87.2111149,112.62946 87.1494127,112.40066 L87.107343,112.169199 C87.0849057,111.935077 87.0035714,111.756827 86.8633385,111.634446 L86.7034727,111.530688 C86.2248093,111.246904 85.716237,110.8638 85.1777406,110.381367 C84.6392442,109.898934 84.37,109.572587 84.37,109.402316 C84.37,109.175289 84.5195801,108.891508 84.8187448,108.550967 C85.0580765,108.210426 85.3422787,108.025969 85.6713598,107.997591 L86.8317833,107.927753 C87.1725485,107.91046 87.5785226,107.891172 88.049707,107.869888 C89.844695,107.869888 92.0584803,107.586108 94.6911294,107.01854 Z M66.4266747,101.689054 C68.1482784,101.31793 70.931496,101.596269 74.776411,102.52408 C75.6372129,102.709642 76.2541116,103.096224 76.6271257,103.683838 C77.0001399,104.271451 77.3588019,104.658033 77.7031227,104.843595 C78.1048302,105.21472 78.3630669,107.224947 78.4778405,110.874336 L78.65,114.4 L77.961362,114.121658 C75.8437894,113.509303 73.8192106,112.245643 71.8875767,110.330644 L71.247141,109.668188 C69.7550845,108.121837 68.521287,107.070333 67.5457115,106.513647 L66.9054913,106.136724 C66.448192,105.856449 66.1814363,105.660741 66.1052204,105.549598 L66.0823557,105.49306 C66.0823557,105.369352 65.9101979,105.307499 65.5658772,105.307499 C65.4511036,105.307499 65.3650247,105.276572 65.3076379,105.214718 C65.2502511,105.152864 65.2502511,105.060084 65.3076379,104.936376 C65.3650247,104.812668 65.5658754,104.750815 65.9101962,104.750815 C66.0823565,104.750815 66.1971284,104.658035 66.2545152,104.472473 C66.4266756,104.286911 66.3692896,104.163204 66.0823557,104.10135 L65.8241164,104.078155 L65.8241164,104.078155 L65.5658772,104.00857 C65.3937168,103.946716 65.192866,103.915789 64.9633189,103.915789 C64.7337717,103.915789 64.5472674,103.714766 64.4038005,103.312715 C64.2603335,102.910664 64.4037983,102.570471 64.8341992,102.292128 C65.2646002,102.013785 65.79542,101.812762 66.4266747,101.689054 Z" id="福" fill="#F5C487" fill-rule="nonzero" opacity="0.530296689"></path>
        </g>
        <g id="编组-30" transform="translate(43.000000, 189.300000)">
            <circle id="椭圆形" stroke="#4E311D" stroke-width="4.1184" fill="#262825" cx="304.7616" cy="40.1544" r="10.296"></circle>
            <circle id="椭圆形备份" stroke="#4E311D" stroke-width="4.1184" fill="#262825" cx="304.7616" cy="146.2032" r="10.296"></circle>
            <rect id="矩形" fill="#FFCA00" x="21.45" y="0" width="277.992" height="185.328" rx="16.4736"></rect>
            <g id="编组-29" opacity="0.252836682" transform="translate(50.278800, 33.061600)" fill="#BC6625">
                <path d="M222.4508,111.54 C223.588065,111.54 224.51,112.461935 224.51,113.5992 L224.51,118.0608 C224.51,119.198065 223.588065,120.12 222.4508,120.12 L2.0592,120.12 C0.921935243,120.12 4.13607765e-15,119.198065 0,118.0608 L0,113.5992 C-1.39274764e-16,112.461935 0.921935243,111.54 2.0592,111.54 L222.4508,111.54 Z M222.4508,55.77 C223.588065,55.77 224.51,56.6919352 224.51,57.8292 L224.51,62.2908 C224.51,63.4280648 223.588065,64.35 222.4508,64.35 L2.0592,64.35 C0.921935243,64.35 4.13607765e-15,63.4280648 0,62.2908 L0,57.8292 C-1.39274764e-16,56.6919352 0.921935243,55.77 2.0592,55.77 L222.4508,55.77 Z M222.4508,0 C223.588065,-2.08912147e-16 224.51,0.921935243 224.51,2.0592 L224.51,6.5208 C224.51,7.65806476 223.588065,8.58 222.4508,8.58 L2.0592,8.58 C0.921935243,8.58 4.13607765e-15,7.65806476 0,6.5208 L0,2.0592 C-1.39274764e-16,0.921935243 0.921935243,6.53001356e-16 2.0592,0 L222.4508,0 Z" id="形状结合" filter="url(#filter-2)"></path>
            </g>
            <path d="M26.7696,120.4632 L7.87341176,120.4632 C3.52504652,120.4632 0,116.171432 0,110.877269 L0,74.450731 C0,69.1565675 3.52504652,64.8648 7.87341176,64.8648 L7.87341176,64.8648 L26.7696,64.8648 L26.7696,64.8648" id="路径" stroke="#262825" stroke-width="10.296"></path>
        </g>
    </g>
</svg>